<?xml version="1.0" encoding="utf-8"?>
<!-- Generator: Adobe Illustrator 22.1.0, SVG Export Plug-In . SVG Version: 6.00 Build 0)  -->
<svg version="1.1" id="Layer_1" xmlns="http://www.w3.org/2000/svg" xmlns:xlink="http://www.w3.org/1999/xlink" x="0px" y="0px"
	 width="487.796px" height="487.796px" viewBox="0 0 487.796 487.796" style="enable-background:new 0 0 487.796 487.796;"
	 xml:space="preserve">
<style type="text/css">
	.st0{opacity:0;fill:#FFFFFF;}
	.st1{opacity:0.0112;fill:#FEFEFF;}
	.st2{opacity:0.0225;fill:#FDFDFF;}
	.st3{opacity:0.0337;fill:#FCFCFF;}
	.st4{opacity:0.0449;fill:#FBFBFE;}
	.st5{opacity:0.0562;fill:#FAFAFE;}
	.st6{opacity:0.0674;fill:#F9F9FE;}
	.st7{opacity:0.0787;fill:#F8F8FE;}
	.st8{opacity:0.0899;fill:#F7F7FE;}
	.st9{opacity:0.1011;fill:#F6F6FE;}
	.st10{opacity:0.1124;fill:#F5F5FE;}
	.st11{opacity:0.1236;fill:#F4F4FD;}
	.st12{opacity:0.1348;fill:#F3F3FD;}
	.st13{opacity:0.1461;fill:#F2F2FD;}
	.st14{opacity:0.1573;fill:#F1F1FD;}
	.st15{opacity:0.1685;fill:#F0F0FD;}
	.st16{opacity:0.1798;fill:#EFEFFD;}
	.st17{opacity:0.191;fill:#EEEEFD;}
	.st18{opacity:0.2022;fill:#EDEDFC;}
	.st19{opacity:0.2135;fill:#ECECFC;}
	.st20{opacity:0.2247;fill:#EBEBFC;}
	.st21{opacity:0.236;fill:#EAEAFC;}
	.st22{opacity:0.2472;fill:#E9E9FC;}
	.st23{opacity:0.2584;fill:#E8E8FC;}
	.st24{opacity:0.2697;fill:#E7E7FB;}
	.st25{opacity:0.2809;fill:#E6E6FB;}
	.st26{opacity:0.2921;fill:#E5E5FB;}
	.st27{opacity:0.3034;fill:#E4E4FB;}
	.st28{opacity:0.3146;fill:#E3E3FB;}
	.st29{opacity:0.3258;fill:#E2E2FB;}
	.st30{opacity:0.3371;fill:#E1E1FB;}
	.st31{opacity:0.3483;fill:#E0E0FA;}
	.st32{opacity:0.3596;fill:#DFDFFA;}
	.st33{opacity:0.3708;fill:#DEDEFA;}
	.st34{opacity:0.382;fill:#DDDDFA;}
	.st35{opacity:0.3933;fill:#DCDCFA;}
	.st36{opacity:0.4045;fill:#DBDBFA;}
	.st37{opacity:0.4157;fill:#DADAFA;}
	.st38{opacity:0.427;fill:#D9D9F9;}
	.st39{opacity:0.4382;fill:#D8D8F9;}
	.st40{opacity:0.4494;fill:#D7D7F9;}
	.st41{opacity:0.4607;fill:#D6D6F9;}
	.st42{opacity:0.4719;fill:#D5D5F9;}
	.st43{opacity:0.4831;fill:#D4D4F9;}
	.st44{opacity:0.4944;fill:#D3D3F9;}
	.st45{opacity:0.5056;fill:#D3D3F8;}
	.st46{opacity:0.5169;fill:#D2D2F8;}
	.st47{opacity:0.5281;fill:#D1D1F8;}
	.st48{opacity:0.5393;fill:#D0D0F8;}
	.st49{opacity:0.5506;fill:#CFCFF8;}
	.st50{opacity:0.5618;fill:#CECEF8;}
	.st51{opacity:0.573;fill:#CDCDF8;}
	.st52{opacity:0.5843;fill:#CCCCF7;}
	.st53{opacity:0.5955;fill:#CBCBF7;}
	.st54{opacity:0.6067;fill:#CACAF7;}
	.st55{opacity:0.618;fill:#C9C9F7;}
	.st56{opacity:0.6292;fill:#C8C8F7;}
	.st57{opacity:0.6404;fill:#C7C7F7;}
	.st58{opacity:0.6517;fill:#C6C6F7;}
	.st59{opacity:0.6629;fill:#C5C5F6;}
	.st60{opacity:0.6742;fill:#C4C4F6;}
	.st61{opacity:0.6854;fill:#C3C3F6;}
	.st62{opacity:0.6966;fill:#C2C2F6;}
	.st63{opacity:0.7079;fill:#C1C1F6;}
	.st64{opacity:0.7191;fill:#C0C0F6;}
	.st65{opacity:0.7303;fill:#BFBFF6;}
	.st66{opacity:0.7416;fill:#BEBEF5;}
	.st67{opacity:0.7528;fill:#BDBDF5;}
	.st68{opacity:0.764;fill:#BCBCF5;}
	.st69{opacity:0.7753;fill:#BBBBF5;}
	.st70{opacity:0.7865;fill:#BABAF5;}
	.st71{opacity:0.7978;fill:#B9B9F5;}
	.st72{opacity:0.809;fill:#B8B8F4;}
	.st73{opacity:0.8202;fill:#B7B7F4;}
	.st74{opacity:0.8315;fill:#B6B6F4;}
	.st75{opacity:0.8427;fill:#B5B5F4;}
	.st76{opacity:0.8539;fill:#B4B4F4;}
	.st77{opacity:0.8652;fill:#B3B3F4;}
	.st78{opacity:0.8764;fill:#B2B2F4;}
	.st79{opacity:0.8876;fill:#B1B1F3;}
	.st80{opacity:0.8989;fill:#B0B0F3;}
	.st81{opacity:0.9101;fill:#AFAFF3;}
	.st82{opacity:0.9213;fill:#AEAEF3;}
	.st83{opacity:0.9326;fill:#ADADF3;}
	.st84{opacity:0.9438;fill:#ACACF3;}
	.st85{opacity:0.9551;fill:#ABABF3;}
	.st86{opacity:0.9663;fill:#AAAAF2;}
	.st87{opacity:0.9775;fill:#A9A9F2;}
	.st88{opacity:0.9888;fill:#A8A8F2;}
	.st89{fill:#A7A7F2;}
	.st90{fill:url(#SVGID_1_);}
</style>
<g>
	<g>
		<circle class="st0" cx="243.898" cy="243.898" r="243.898"/>
		<circle class="st1" cx="244.624" cy="243.174" r="242.528"/>
		<circle class="st2" cx="245.35" cy="242.449" r="241.158"/>
		<circle class="st3" cx="246.076" cy="241.725" r="239.787"/>
		<circle class="st4" cx="246.802" cy="241.001" r="238.417"/>
		<circle class="st5" cx="247.528" cy="240.276" r="237.047"/>
		<circle class="st6" cx="248.254" cy="239.552" r="235.677"/>
		<circle class="st7" cx="248.98" cy="238.828" r="234.307"/>
		<circle class="st8" cx="249.707" cy="238.103" r="232.936"/>
		<circle class="st9" cx="250.433" cy="237.379" r="231.566"/>
		<circle class="st10" cx="251.159" cy="236.654" r="230.196"/>
		<circle class="st11" cx="251.885" cy="235.93" r="228.826"/>
		<circle class="st12" cx="252.611" cy="235.206" r="227.455"/>
		<circle class="st13" cx="253.337" cy="234.481" r="226.085"/>
		<circle class="st14" cx="254.063" cy="233.757" r="224.715"/>
		<circle class="st15" cx="254.789" cy="233.033" r="223.345"/>
		<circle class="st16" cx="255.515" cy="232.308" r="221.975"/>
		<circle class="st17" cx="256.241" cy="231.584" r="220.604"/>
		<circle class="st18" cx="256.967" cy="230.86" r="219.234"/>
		<circle class="st19" cx="257.693" cy="230.135" r="217.864"/>
		<circle class="st20" cx="258.419" cy="229.411" r="216.494"/>
		<circle class="st21" cx="259.145" cy="228.686" r="215.124"/>
		<circle class="st22" cx="259.871" cy="227.962" r="213.753"/>
		<circle class="st23" cx="260.597" cy="227.238" r="212.383"/>
		<circle class="st24" cx="261.324" cy="226.513" r="211.013"/>
		<circle class="st25" cx="262.05" cy="225.789" r="209.643"/>
		<circle class="st26" cx="262.776" cy="225.065" r="208.272"/>
		<circle class="st27" cx="263.502" cy="224.34" r="206.902"/>
		<circle class="st28" cx="264.228" cy="223.616" r="205.532"/>
		<circle class="st29" cx="264.954" cy="222.892" r="204.162"/>
		<circle class="st30" cx="265.68" cy="222.167" r="202.792"/>
		<circle class="st31" cx="266.406" cy="221.443" r="201.421"/>
		<circle class="st32" cx="267.132" cy="220.718" r="200.051"/>
		<circle class="st33" cx="267.858" cy="219.994" r="198.681"/>
		<circle class="st34" cx="268.584" cy="219.27" r="197.311"/>
		<circle class="st35" cx="269.31" cy="218.545" r="195.941"/>
		<circle class="st36" cx="270.036" cy="217.821" r="194.57"/>
		<circle class="st37" cx="270.762" cy="217.097" r="193.2"/>
		<circle class="st38" cx="271.488" cy="216.372" r="191.83"/>
		<circle class="st39" cx="272.214" cy="215.648" r="190.46"/>
		<circle class="st40" cx="272.941" cy="214.924" r="189.089"/>
		<circle class="st41" cx="273.667" cy="214.199" r="187.719"/>
		<circle class="st42" cx="274.393" cy="213.475" r="186.349"/>
		<circle class="st43" cx="275.119" cy="212.75" r="184.979"/>
		<circle class="st44" cx="275.845" cy="212.026" r="183.609"/>
		<circle class="st45" cx="276.571" cy="211.302" r="182.238"/>
		<circle class="st46" cx="277.297" cy="210.577" r="180.868"/>
		<circle class="st47" cx="278.023" cy="209.853" r="179.498"/>
		<circle class="st48" cx="278.749" cy="209.129" r="178.128"/>
		<circle class="st49" cx="279.475" cy="208.404" r="176.758"/>
		<circle class="st50" cx="280.201" cy="207.68" r="175.387"/>
		<circle class="st51" cx="280.927" cy="206.956" r="174.017"/>
		<circle class="st52" cx="281.653" cy="206.231" r="172.647"/>
		<circle class="st53" cx="282.379" cy="205.507" r="171.277"/>
		<circle class="st54" cx="283.105" cy="204.782" r="169.907"/>
		<circle class="st55" cx="283.831" cy="204.058" r="168.536"/>
		<circle class="st56" cx="284.557" cy="203.334" r="167.166"/>
		<circle class="st57" cx="285.284" cy="202.609" r="165.796"/>
		<circle class="st58" cx="286.01" cy="201.885" r="164.426"/>
		<circle class="st59" cx="286.736" cy="201.161" r="163.055"/>
		<circle class="st60" cx="287.462" cy="200.436" r="161.685"/>
		<circle class="st61" cx="288.188" cy="199.712" r="160.315"/>
		<circle class="st62" cx="288.914" cy="198.988" r="158.945"/>
		<circle class="st63" cx="289.64" cy="198.263" r="157.575"/>
		<circle class="st64" cx="290.366" cy="197.539" r="156.204"/>
		<circle class="st65" cx="291.092" cy="196.814" r="154.834"/>
		<circle class="st66" cx="291.818" cy="196.09" r="153.464"/>
		<circle class="st67" cx="292.544" cy="195.366" r="152.094"/>
		<circle class="st68" cx="293.27" cy="194.641" r="150.724"/>
		<circle class="st69" cx="293.996" cy="193.917" r="149.353"/>
		<circle class="st70" cx="294.722" cy="193.193" r="147.983"/>
		<circle class="st71" cx="295.448" cy="192.468" r="146.613"/>
		<circle class="st72" cx="296.174" cy="191.744" r="145.243"/>
		<circle class="st73" cx="296.901" cy="191.02" r="143.872"/>
		<circle class="st74" cx="297.627" cy="190.295" r="142.502"/>
		<circle class="st75" cx="298.353" cy="189.571" r="141.132"/>
		<circle class="st76" cx="299.079" cy="188.846" r="139.762"/>
		<circle class="st77" cx="299.805" cy="188.122" r="138.392"/>
		<circle class="st78" cx="300.531" cy="187.398" r="137.021"/>
		<circle class="st79" cx="301.257" cy="186.673" r="135.651"/>
		<circle class="st80" cx="301.983" cy="185.949" r="134.281"/>
		<circle class="st81" cx="302.709" cy="185.225" r="132.911"/>
		<circle class="st82" cx="303.435" cy="184.5" r="131.541"/>
		<circle class="st83" cx="304.161" cy="183.776" r="130.17"/>
		<circle class="st84" cx="304.887" cy="183.052" r="128.8"/>
		<circle class="st85" cx="305.613" cy="182.327" r="127.43"/>
		<circle class="st86" cx="306.339" cy="181.603" r="126.06"/>
		<circle class="st87" cx="307.065" cy="180.879" r="124.689"/>
		<circle class="st88" cx="307.791" cy="180.154" r="123.319"/>
		<circle class="st89" cx="308.518" cy="179.43" r="121.949"/>
	</g>
	
		<linearGradient id="SVGID_1_" gradientUnits="userSpaceOnUse" x1="-1758.4406" y1="5815.251" x2="1272.8623" y2="5280.7505" gradientTransform="matrix(1 0 0 1 821.6312 -5416.2368)">
		<stop  offset="0" style="stop-color:#1FAFFF"/>
		<stop  offset="0.0746" style="stop-color:#29B1ED"/>
		<stop  offset="0.4072" style="stop-color:#53BAA3"/>
		<stop  offset="0.683" style="stop-color:#72C06D"/>
		<stop  offset="0.8883" style="stop-color:#85C44C"/>
		<stop  offset="1" style="stop-color:#8CC63F"/>
	</linearGradient>
	<circle class="st90" cx="308.517" cy="179.43" r="175.732"/>
</g>
</svg>
