<?xml version="1.0" encoding="utf-8"?>
<!-- Generator: Adobe Illustrator 22.1.0, SVG Export Plug-In . SVG Version: 6.00 Build 0)  -->
<svg version="1.1" id="Layer_1" xmlns="http://www.w3.org/2000/svg" xmlns:xlink="http://www.w3.org/1999/xlink" x="0px" y="0px"
	 width="203.796px" height="203.796px" viewBox="0 0 203.796 203.796" style="enable-background:new 0 0 203.796 203.796;"
	 xml:space="preserve">
<style type="text/css">
	.st0{opacity:0;fill:#FFFFFF;}
	.st1{opacity:0.0112;fill:#FEFEFF;}
	.st2{opacity:0.0225;fill:#FDFDFF;}
	.st3{opacity:0.0337;fill:#FCFCFF;}
	.st4{opacity:0.0449;fill:#FBFBFE;}
	.st5{opacity:0.0562;fill:#FAFAFE;}
	.st6{opacity:0.0674;fill:#F9F9FE;}
	.st7{opacity:0.0787;fill:#F8F8FE;}
	.st8{opacity:0.0899;fill:#F7F7FE;}
	.st9{opacity:0.1011;fill:#F6F6FE;}
	.st10{opacity:0.1124;fill:#F5F5FE;}
	.st11{opacity:0.1236;fill:#F4F4FD;}
	.st12{opacity:0.1348;fill:#F3F3FD;}
	.st13{opacity:0.1461;fill:#F2F2FD;}
	.st14{opacity:0.1573;fill:#F1F1FD;}
	.st15{opacity:0.1685;fill:#F0F0FD;}
	.st16{opacity:0.1798;fill:#EFEFFD;}
	.st17{opacity:0.191;fill:#EEEEFD;}
	.st18{opacity:0.2022;fill:#EDEDFC;}
	.st19{opacity:0.2135;fill:#ECECFC;}
	.st20{opacity:0.2247;fill:#EBEBFC;}
	.st21{opacity:0.236;fill:#EAEAFC;}
	.st22{opacity:0.2472;fill:#E9E9FC;}
	.st23{opacity:0.2584;fill:#E8E8FC;}
	.st24{opacity:0.2697;fill:#E7E7FB;}
	.st25{opacity:0.2809;fill:#E6E6FB;}
	.st26{opacity:0.2921;fill:#E5E5FB;}
	.st27{opacity:0.3034;fill:#E4E4FB;}
	.st28{opacity:0.3146;fill:#E3E3FB;}
	.st29{opacity:0.3258;fill:#E2E2FB;}
	.st30{opacity:0.3371;fill:#E1E1FB;}
	.st31{opacity:0.3483;fill:#E0E0FA;}
	.st32{opacity:0.3596;fill:#DFDFFA;}
	.st33{opacity:0.3708;fill:#DEDEFA;}
	.st34{opacity:0.382;fill:#DDDDFA;}
	.st35{opacity:0.3933;fill:#DCDCFA;}
	.st36{opacity:0.4045;fill:#DBDBFA;}
	.st37{opacity:0.4157;fill:#DADAFA;}
	.st38{opacity:0.427;fill:#D9D9F9;}
	.st39{opacity:0.4382;fill:#D8D8F9;}
	.st40{opacity:0.4494;fill:#D7D7F9;}
	.st41{opacity:0.4607;fill:#D6D6F9;}
	.st42{opacity:0.4719;fill:#D5D5F9;}
	.st43{opacity:0.4831;fill:#D4D4F9;}
	.st44{opacity:0.4944;fill:#D3D3F9;}
	.st45{opacity:0.5056;fill:#D3D3F8;}
	.st46{opacity:0.5169;fill:#D2D2F8;}
	.st47{opacity:0.5281;fill:#D1D1F8;}
	.st48{opacity:0.5393;fill:#D0D0F8;}
	.st49{opacity:0.5506;fill:#CFCFF8;}
	.st50{opacity:0.5618;fill:#CECEF8;}
	.st51{opacity:0.573;fill:#CDCDF8;}
	.st52{opacity:0.5843;fill:#CCCCF7;}
	.st53{opacity:0.5955;fill:#CBCBF7;}
	.st54{opacity:0.6067;fill:#CACAF7;}
	.st55{opacity:0.618;fill:#C9C9F7;}
	.st56{opacity:0.6292;fill:#C8C8F7;}
	.st57{opacity:0.6404;fill:#C7C7F7;}
	.st58{opacity:0.6517;fill:#C6C6F7;}
	.st59{opacity:0.6629;fill:#C5C5F6;}
	.st60{opacity:0.6742;fill:#C4C4F6;}
	.st61{opacity:0.6854;fill:#C3C3F6;}
	.st62{opacity:0.6966;fill:#C2C2F6;}
	.st63{opacity:0.7079;fill:#C1C1F6;}
	.st64{opacity:0.7191;fill:#C0C0F6;}
	.st65{opacity:0.7303;fill:#BFBFF6;}
	.st66{opacity:0.7416;fill:#BEBEF5;}
	.st67{opacity:0.7528;fill:#BDBDF5;}
	.st68{opacity:0.764;fill:#BCBCF5;}
	.st69{opacity:0.7753;fill:#BBBBF5;}
	.st70{opacity:0.7865;fill:#BABAF5;}
	.st71{opacity:0.7978;fill:#B9B9F5;}
	.st72{opacity:0.809;fill:#B8B8F4;}
	.st73{opacity:0.8202;fill:#B7B7F4;}
	.st74{opacity:0.8315;fill:#B6B6F4;}
	.st75{opacity:0.8427;fill:#B5B5F4;}
	.st76{opacity:0.8539;fill:#B4B4F4;}
	.st77{opacity:0.8652;fill:#B3B3F4;}
	.st78{opacity:0.8764;fill:#B2B2F4;}
	.st79{opacity:0.8876;fill:#B1B1F3;}
	.st80{opacity:0.8989;fill:#B0B0F3;}
	.st81{opacity:0.9101;fill:#AFAFF3;}
	.st82{opacity:0.9213;fill:#AEAEF3;}
	.st83{opacity:0.9326;fill:#ADADF3;}
	.st84{opacity:0.9438;fill:#ACACF3;}
	.st85{opacity:0.9551;fill:#ABABF3;}
	.st86{opacity:0.9663;fill:#AAAAF2;}
	.st87{opacity:0.9775;fill:#A9A9F2;}
	.st88{opacity:0.9888;fill:#A8A8F2;}
	.st89{fill:#A7A7F2;}
	.st90{fill:url(#SVGID_1_);}
</style>
<g>
	<g>
		<circle class="st0" cx="101.898" cy="101.898" r="101.898"/>
		<circle class="st1" cx="102.201" cy="101.596" r="101.326"/>
		<circle class="st2" cx="102.505" cy="101.293" r="100.753"/>
		<circle class="st3" cx="102.808" cy="100.99" r="100.181"/>
		<circle class="st4" cx="103.112" cy="100.688" r="99.608"/>
		<circle class="st5" cx="103.415" cy="100.385" r="99.036"/>
		<circle class="st6" cx="103.718" cy="100.082" r="98.463"/>
		<circle class="st7" cx="104.022" cy="99.78" r="97.891"/>
		<circle class="st8" cx="104.325" cy="99.477" r="97.318"/>
		<circle class="st9" cx="104.628" cy="99.174" r="96.746"/>
		<circle class="st10" cx="104.932" cy="98.872" r="96.174"/>
		<circle class="st11" cx="105.235" cy="98.569" r="95.601"/>
		<circle class="st12" cx="105.538" cy="98.267" r="95.029"/>
		<circle class="st13" cx="105.842" cy="97.964" r="94.456"/>
		<circle class="st14" cx="106.145" cy="97.661" r="93.884"/>
		<circle class="st15" cx="106.448" cy="97.359" r="93.311"/>
		<circle class="st16" cx="106.752" cy="97.056" r="92.739"/>
		<circle class="st17" cx="107.055" cy="96.753" r="92.166"/>
		<circle class="st18" cx="107.358" cy="96.451" r="91.594"/>
		<circle class="st19" cx="107.662" cy="96.148" r="91.021"/>
		<circle class="st20" cx="107.965" cy="95.846" r="90.449"/>
		<circle class="st21" cx="108.268" cy="95.543" r="89.876"/>
		<circle class="st22" cx="108.572" cy="95.24" r="89.304"/>
		<circle class="st23" cx="108.875" cy="94.938" r="88.732"/>
		<circle class="st24" cx="109.178" cy="94.635" r="88.159"/>
		<circle class="st25" cx="109.482" cy="94.332" r="87.587"/>
		<circle class="st26" cx="109.785" cy="94.03" r="87.014"/>
		<circle class="st27" cx="110.088" cy="93.727" r="86.442"/>
		<circle class="st28" cx="110.392" cy="93.424" r="85.869"/>
		<circle class="st29" cx="110.695" cy="93.122" r="85.297"/>
		<circle class="st30" cx="110.998" cy="92.819" r="84.724"/>
		<circle class="st31" cx="111.302" cy="92.517" r="84.152"/>
		<circle class="st32" cx="111.605" cy="92.214" r="83.579"/>
		<circle class="st33" cx="111.908" cy="91.911" r="83.007"/>
		<circle class="st34" cx="112.212" cy="91.609" r="82.434"/>
		<circle class="st35" cx="112.515" cy="91.306" r="81.862"/>
		<circle class="st36" cx="112.818" cy="91.003" r="81.29"/>
		<circle class="st37" cx="113.122" cy="90.701" r="80.717"/>
		<circle class="st38" cx="113.425" cy="90.398" r="80.145"/>
		<circle class="st39" cx="113.728" cy="90.096" r="79.572"/>
		<circle class="st40" cx="114.032" cy="89.793" r="79"/>
		<circle class="st41" cx="114.335" cy="89.49" r="78.427"/>
		<circle class="st42" cx="114.638" cy="89.188" r="77.855"/>
		<circle class="st43" cx="114.942" cy="88.885" r="77.282"/>
		<circle class="st44" cx="115.245" cy="88.582" r="76.71"/>
		<circle class="st45" cx="115.549" cy="88.28" r="76.137"/>
		<circle class="st46" cx="115.852" cy="87.977" r="75.565"/>
		<circle class="st47" cx="116.155" cy="87.674" r="74.992"/>
		<circle class="st48" cx="116.459" cy="87.372" r="74.42"/>
		<circle class="st49" cx="116.762" cy="87.069" r="73.848"/>
		<circle class="st50" cx="117.065" cy="86.767" r="73.275"/>
		<circle class="st51" cx="117.369" cy="86.464" r="72.703"/>
		<circle class="st52" cx="117.672" cy="86.161" r="72.13"/>
		<circle class="st53" cx="117.975" cy="85.859" r="71.558"/>
		<circle class="st54" cx="118.279" cy="85.556" r="70.985"/>
		<circle class="st55" cx="118.582" cy="85.253" r="70.413"/>
		<circle class="st56" cx="118.885" cy="84.951" r="69.84"/>
		<circle class="st57" cx="119.189" cy="84.648" r="69.268"/>
		<circle class="st58" cx="119.492" cy="84.346" r="68.695"/>
		<circle class="st59" cx="119.795" cy="84.043" r="68.123"/>
		<circle class="st60" cx="120.099" cy="83.74" r="67.55"/>
		<circle class="st61" cx="120.402" cy="83.438" r="66.978"/>
		<circle class="st62" cx="120.705" cy="83.135" r="66.406"/>
		<circle class="st63" cx="121.009" cy="82.832" r="65.833"/>
		<circle class="st64" cx="121.312" cy="82.53" r="65.261"/>
		<circle class="st65" cx="121.615" cy="82.227" r="64.688"/>
		<circle class="st66" cx="121.919" cy="81.924" r="64.116"/>
		<circle class="st67" cx="122.222" cy="81.622" r="63.543"/>
		<circle class="st68" cx="122.525" cy="81.319" r="62.971"/>
		<circle class="st69" cx="122.829" cy="81.017" r="62.398"/>
		<circle class="st70" cx="123.132" cy="80.714" r="61.826"/>
		<circle class="st71" cx="123.435" cy="80.411" r="61.253"/>
		<circle class="st72" cx="123.739" cy="80.109" r="60.681"/>
		<circle class="st73" cx="124.042" cy="79.806" r="60.108"/>
		<circle class="st74" cx="124.345" cy="79.503" r="59.536"/>
		<circle class="st75" cx="124.649" cy="79.201" r="58.964"/>
		<circle class="st76" cx="124.952" cy="78.898" r="58.391"/>
		<circle class="st77" cx="125.255" cy="78.596" r="57.819"/>
		<circle class="st78" cx="125.559" cy="78.293" r="57.246"/>
		<circle class="st79" cx="125.862" cy="77.99" r="56.674"/>
		<circle class="st80" cx="126.165" cy="77.688" r="56.101"/>
		<circle class="st81" cx="126.469" cy="77.385" r="55.529"/>
		<circle class="st82" cx="126.772" cy="77.082" r="54.956"/>
		<circle class="st83" cx="127.075" cy="76.78" r="54.384"/>
		<circle class="st84" cx="127.379" cy="76.477" r="53.811"/>
		<circle class="st85" cx="127.682" cy="76.174" r="53.239"/>
		<circle class="st86" cx="127.986" cy="75.872" r="52.666"/>
		<circle class="st87" cx="128.289" cy="75.569" r="52.094"/>
		<circle class="st88" cx="128.592" cy="75.267" r="51.522"/>
		<circle class="st89" cx="128.896" cy="74.964" r="50.949"/>
	</g>
	
		<linearGradient id="SVGID_1_" gradientUnits="userSpaceOnUse" x1="-1213.0208" y1="5582.9409" x2="53.4272" y2="5359.6318" gradientTransform="matrix(1 0 0 1 821.6312 -5416.2368)">
		<stop  offset="0" style="stop-color:#1FAFFF"/>
		<stop  offset="0.0746" style="stop-color:#29B1ED"/>
		<stop  offset="0.4072" style="stop-color:#53BAA3"/>
		<stop  offset="0.683" style="stop-color:#72C06D"/>
		<stop  offset="0.8883" style="stop-color:#85C44C"/>
		<stop  offset="1" style="stop-color:#8CC63F"/>
	</linearGradient>
	<circle class="st90" cx="128.895" cy="74.964" r="73.419"/>
</g>
</svg>
