<?xml version="1.0" encoding="utf-8"?>
<!-- Generator: Adobe Illustrator 22.1.0, SVG Export Plug-In . SVG Version: 6.00 Build 0)  -->
<svg version="1.1" id="Layer_1" xmlns="http://www.w3.org/2000/svg" xmlns:xlink="http://www.w3.org/1999/xlink" x="0px" y="0px"
	 width="249.796px" height="249.796px" viewBox="0 0 249.796 249.796" style="enable-background:new 0 0 249.796 249.796;"
	 xml:space="preserve">
<style type="text/css">
	.st0{opacity:0;fill:#FFFFFF;}
	.st1{opacity:0.0112;fill:#FEFEFF;}
	.st2{opacity:0.0225;fill:#FDFDFF;}
	.st3{opacity:0.0337;fill:#FCFCFF;}
	.st4{opacity:0.0449;fill:#FBFBFE;}
	.st5{opacity:0.0562;fill:#FAFAFE;}
	.st6{opacity:0.0674;fill:#F9F9FE;}
	.st7{opacity:0.0787;fill:#F8F8FE;}
	.st8{opacity:0.0899;fill:#F7F7FE;}
	.st9{opacity:0.1011;fill:#F6F6FE;}
	.st10{opacity:0.1124;fill:#F5F5FE;}
	.st11{opacity:0.1236;fill:#F4F4FD;}
	.st12{opacity:0.1348;fill:#F3F3FD;}
	.st13{opacity:0.1461;fill:#F2F2FD;}
	.st14{opacity:0.1573;fill:#F1F1FD;}
	.st15{opacity:0.1685;fill:#F0F0FD;}
	.st16{opacity:0.1798;fill:#EFEFFD;}
	.st17{opacity:0.191;fill:#EEEEFD;}
	.st18{opacity:0.2022;fill:#EDEDFC;}
	.st19{opacity:0.2135;fill:#ECECFC;}
	.st20{opacity:0.2247;fill:#EBEBFC;}
	.st21{opacity:0.236;fill:#EAEAFC;}
	.st22{opacity:0.2472;fill:#E9E9FC;}
	.st23{opacity:0.2584;fill:#E8E8FC;}
	.st24{opacity:0.2697;fill:#E7E7FB;}
	.st25{opacity:0.2809;fill:#E6E6FB;}
	.st26{opacity:0.2921;fill:#E5E5FB;}
	.st27{opacity:0.3034;fill:#E4E4FB;}
	.st28{opacity:0.3146;fill:#E3E3FB;}
	.st29{opacity:0.3258;fill:#E2E2FB;}
	.st30{opacity:0.3371;fill:#E1E1FB;}
	.st31{opacity:0.3483;fill:#E0E0FA;}
	.st32{opacity:0.3596;fill:#DFDFFA;}
	.st33{opacity:0.3708;fill:#DEDEFA;}
	.st34{opacity:0.382;fill:#DDDDFA;}
	.st35{opacity:0.3933;fill:#DCDCFA;}
	.st36{opacity:0.4045;fill:#DBDBFA;}
	.st37{opacity:0.4157;fill:#DADAFA;}
	.st38{opacity:0.427;fill:#D9D9F9;}
	.st39{opacity:0.4382;fill:#D8D8F9;}
	.st40{opacity:0.4494;fill:#D7D7F9;}
	.st41{opacity:0.4607;fill:#D6D6F9;}
	.st42{opacity:0.4719;fill:#D5D5F9;}
	.st43{opacity:0.4831;fill:#D4D4F9;}
	.st44{opacity:0.4944;fill:#D3D3F9;}
	.st45{opacity:0.5056;fill:#D3D3F8;}
	.st46{opacity:0.5169;fill:#D2D2F8;}
	.st47{opacity:0.5281;fill:#D1D1F8;}
	.st48{opacity:0.5393;fill:#D0D0F8;}
	.st49{opacity:0.5506;fill:#CFCFF8;}
	.st50{opacity:0.5618;fill:#CECEF8;}
	.st51{opacity:0.573;fill:#CDCDF8;}
	.st52{opacity:0.5843;fill:#CCCCF7;}
	.st53{opacity:0.5955;fill:#CBCBF7;}
	.st54{opacity:0.6067;fill:#CACAF7;}
	.st55{opacity:0.618;fill:#C9C9F7;}
	.st56{opacity:0.6292;fill:#C8C8F7;}
	.st57{opacity:0.6404;fill:#C7C7F7;}
	.st58{opacity:0.6517;fill:#C6C6F7;}
	.st59{opacity:0.6629;fill:#C5C5F6;}
	.st60{opacity:0.6742;fill:#C4C4F6;}
	.st61{opacity:0.6854;fill:#C3C3F6;}
	.st62{opacity:0.6966;fill:#C2C2F6;}
	.st63{opacity:0.7079;fill:#C1C1F6;}
	.st64{opacity:0.7191;fill:#C0C0F6;}
	.st65{opacity:0.7303;fill:#BFBFF6;}
	.st66{opacity:0.7416;fill:#BEBEF5;}
	.st67{opacity:0.7528;fill:#BDBDF5;}
	.st68{opacity:0.764;fill:#BCBCF5;}
	.st69{opacity:0.7753;fill:#BBBBF5;}
	.st70{opacity:0.7865;fill:#BABAF5;}
	.st71{opacity:0.7978;fill:#B9B9F5;}
	.st72{opacity:0.809;fill:#B8B8F4;}
	.st73{opacity:0.8202;fill:#B7B7F4;}
	.st74{opacity:0.8315;fill:#B6B6F4;}
	.st75{opacity:0.8427;fill:#B5B5F4;}
	.st76{opacity:0.8539;fill:#B4B4F4;}
	.st77{opacity:0.8652;fill:#B3B3F4;}
	.st78{opacity:0.8764;fill:#B2B2F4;}
	.st79{opacity:0.8876;fill:#B1B1F3;}
	.st80{opacity:0.8989;fill:#B0B0F3;}
	.st81{opacity:0.9101;fill:#AFAFF3;}
	.st82{opacity:0.9213;fill:#AEAEF3;}
	.st83{opacity:0.9326;fill:#ADADF3;}
	.st84{opacity:0.9438;fill:#ACACF3;}
	.st85{opacity:0.9551;fill:#ABABF3;}
	.st86{opacity:0.9663;fill:#AAAAF2;}
	.st87{opacity:0.9775;fill:#A9A9F2;}
	.st88{opacity:0.9888;fill:#A8A8F2;}
	.st89{fill:#A7A7F2;}
	.st90{fill:url(#SVGID_1_);}
</style>
<g>
	<g>
		<circle class="st0" cx="124.898" cy="124.898" r="124.898"/>
		<circle class="st1" cx="125.27" cy="124.527" r="124.197"/>
		<circle class="st2" cx="125.642" cy="124.156" r="123.495"/>
		<circle class="st3" cx="126.014" cy="123.785" r="122.793"/>
		<circle class="st4" cx="126.385" cy="123.414" r="122.092"/>
		<circle class="st5" cx="126.757" cy="123.044" r="121.39"/>
		<circle class="st6" cx="127.129" cy="122.673" r="120.688"/>
		<circle class="st7" cx="127.501" cy="122.302" r="119.987"/>
		<circle class="st8" cx="127.873" cy="121.931" r="119.285"/>
		<circle class="st9" cx="128.245" cy="121.56" r="118.583"/>
		<circle class="st10" cx="128.616" cy="121.189" r="117.881"/>
		<circle class="st11" cx="128.988" cy="120.818" r="117.18"/>
		<circle class="st12" cx="129.36" cy="120.447" r="116.478"/>
		<circle class="st13" cx="129.732" cy="120.076" r="115.776"/>
		<circle class="st14" cx="130.104" cy="119.705" r="115.075"/>
		<circle class="st15" cx="130.475" cy="119.334" r="114.373"/>
		<circle class="st16" cx="130.847" cy="118.963" r="113.671"/>
		<circle class="st17" cx="131.219" cy="118.592" r="112.97"/>
		<circle class="st18" cx="131.591" cy="118.221" r="112.268"/>
		<circle class="st19" cx="131.963" cy="117.85" r="111.566"/>
		<circle class="st20" cx="132.334" cy="117.479" r="110.865"/>
		<circle class="st21" cx="132.706" cy="117.109" r="110.163"/>
		<circle class="st22" cx="133.078" cy="116.738" r="109.461"/>
		<circle class="st23" cx="133.45" cy="116.367" r="108.76"/>
		<circle class="st24" cx="133.822" cy="115.996" r="108.058"/>
		<circle class="st25" cx="134.194" cy="115.625" r="107.356"/>
		<circle class="st26" cx="134.565" cy="115.254" r="106.655"/>
		<circle class="st27" cx="134.937" cy="114.883" r="105.953"/>
		<circle class="st28" cx="135.309" cy="114.512" r="105.251"/>
		<circle class="st29" cx="135.681" cy="114.141" r="104.55"/>
		<circle class="st30" cx="136.053" cy="113.77" r="103.848"/>
		<circle class="st31" cx="136.424" cy="113.399" r="103.146"/>
		<circle class="st32" cx="136.796" cy="113.028" r="102.445"/>
		<circle class="st33" cx="137.168" cy="112.657" r="101.743"/>
		<circle class="st34" cx="137.54" cy="112.286" r="101.041"/>
		<circle class="st35" cx="137.912" cy="111.915" r="100.34"/>
		<circle class="st36" cx="138.283" cy="111.544" r="99.638"/>
		<circle class="st37" cx="138.655" cy="111.173" r="98.936"/>
		<circle class="st38" cx="139.027" cy="110.803" r="98.235"/>
		<circle class="st39" cx="139.399" cy="110.432" r="97.533"/>
		<circle class="st40" cx="139.771" cy="110.061" r="96.831"/>
		<circle class="st41" cx="140.142" cy="109.69" r="96.13"/>
		<circle class="st42" cx="140.514" cy="109.319" r="95.428"/>
		<circle class="st43" cx="140.886" cy="108.948" r="94.726"/>
		<circle class="st44" cx="141.258" cy="108.577" r="94.025"/>
		<circle class="st45" cx="141.63" cy="108.206" r="93.323"/>
		<circle class="st46" cx="142.002" cy="107.835" r="92.621"/>
		<circle class="st47" cx="142.373" cy="107.464" r="91.919"/>
		<circle class="st48" cx="142.745" cy="107.093" r="91.218"/>
		<circle class="st49" cx="143.117" cy="106.722" r="90.516"/>
		<circle class="st50" cx="143.489" cy="106.351" r="89.814"/>
		<circle class="st51" cx="143.861" cy="105.98" r="89.113"/>
		<circle class="st52" cx="144.232" cy="105.609" r="88.411"/>
		<circle class="st53" cx="144.604" cy="105.238" r="87.709"/>
		<circle class="st54" cx="144.976" cy="104.867" r="87.008"/>
		<circle class="st55" cx="145.348" cy="104.497" r="86.306"/>
		<circle class="st56" cx="145.72" cy="104.126" r="85.604"/>
		<circle class="st57" cx="146.091" cy="103.755" r="84.903"/>
		<circle class="st58" cx="146.463" cy="103.384" r="84.201"/>
		<circle class="st59" cx="146.835" cy="103.013" r="83.499"/>
		<circle class="st60" cx="147.207" cy="102.642" r="82.798"/>
		<circle class="st61" cx="147.579" cy="102.271" r="82.096"/>
		<circle class="st62" cx="147.95" cy="101.9" r="81.394"/>
		<circle class="st63" cx="148.322" cy="101.529" r="80.693"/>
		<circle class="st64" cx="148.694" cy="101.158" r="79.991"/>
		<circle class="st65" cx="149.066" cy="100.787" r="79.289"/>
		<circle class="st66" cx="149.438" cy="100.416" r="78.588"/>
		<circle class="st67" cx="149.81" cy="100.045" r="77.886"/>
		<circle class="st68" cx="150.181" cy="99.674" r="77.184"/>
		<circle class="st69" cx="150.553" cy="99.303" r="76.483"/>
		<circle class="st70" cx="150.925" cy="98.932" r="75.781"/>
		<circle class="st71" cx="151.297" cy="98.561" r="75.079"/>
		<circle class="st72" cx="151.669" cy="98.191" r="74.378"/>
		<circle class="st73" cx="152.04" cy="97.82" r="73.676"/>
		<circle class="st74" cx="152.412" cy="97.449" r="72.974"/>
		<circle class="st75" cx="152.784" cy="97.078" r="72.273"/>
		<circle class="st76" cx="153.156" cy="96.707" r="71.571"/>
		<circle class="st77" cx="153.528" cy="96.336" r="70.869"/>
		<circle class="st78" cx="153.899" cy="95.965" r="70.168"/>
		<circle class="st79" cx="154.271" cy="95.594" r="69.466"/>
		<circle class="st80" cx="154.643" cy="95.223" r="68.764"/>
		<circle class="st81" cx="155.015" cy="94.852" r="68.063"/>
		<circle class="st82" cx="155.387" cy="94.481" r="67.361"/>
		<circle class="st83" cx="155.758" cy="94.11" r="66.659"/>
		<circle class="st84" cx="156.13" cy="93.739" r="65.958"/>
		<circle class="st85" cx="156.502" cy="93.368" r="65.256"/>
		<circle class="st86" cx="156.874" cy="92.997" r="64.554"/>
		<circle class="st87" cx="157.246" cy="92.626" r="63.852"/>
		<circle class="st88" cx="157.618" cy="92.256" r="63.151"/>
		<circle class="st89" cx="157.989" cy="91.885" r="62.449"/>
	</g>
	
		<linearGradient id="SVGID_1_" gradientUnits="userSpaceOnUse" x1="-1301.3639" y1="5620.5688" x2="250.9422" y2="5346.8555" gradientTransform="matrix(1 0 0 1 821.6312 -5416.2368)">
		<stop  offset="0" style="stop-color:#1FAFFF"/>
		<stop  offset="0.0746" style="stop-color:#29B1ED"/>
		<stop  offset="0.4072" style="stop-color:#53BAA3"/>
		<stop  offset="0.683" style="stop-color:#72C06D"/>
		<stop  offset="0.8883" style="stop-color:#85C44C"/>
		<stop  offset="1" style="stop-color:#8CC63F"/>
	</linearGradient>
	<circle class="st90" cx="157.989" cy="91.885" r="89.991"/>
</g>
</svg>
