<?xml version="1.0" encoding="utf-8"?>
<!-- Generator: Adobe Illustrator 23.0.1, SVG Export Plug-In . SVG Version: 6.00 Build 0)  -->
<svg version="1.1" id="Layer_1" xmlns="http://www.w3.org/2000/svg" xmlns:xlink="http://www.w3.org/1999/xlink" x="0px" y="0px"
	 viewBox="0 0 1600 7258" style="enable-background:new 0 0 1600 7258;" xml:space="preserve">
<style type="text/css">
	.st0{opacity:0.51;}
	.st1{opacity:0;fill:none;stroke:#FFFFFF;stroke-width:8;stroke-miterlimit:10;}
	.st2{opacity:5.917160e-03;fill:none;stroke:#FEFEFE;stroke-width:8;stroke-miterlimit:10;}
	.st3{opacity:1.183432e-02;fill:none;stroke:#FDFDFE;stroke-width:8;stroke-miterlimit:10;}
	.st4{opacity:1.775148e-02;fill:none;stroke:#FCFCFD;stroke-width:8;stroke-miterlimit:10;}
	.st5{opacity:2.366864e-02;fill:none;stroke:#FBFBFC;stroke-width:8;stroke-miterlimit:10;}
	.st6{opacity:2.958580e-02;fill:none;stroke:#FAFAFC;stroke-width:8;stroke-miterlimit:10;}
	.st7{opacity:3.550296e-02;fill:none;stroke:#F9F9FB;stroke-width:8;stroke-miterlimit:10;}
	.st8{opacity:4.142012e-02;fill:none;stroke:#F8F8FA;stroke-width:8;stroke-miterlimit:10;}
	.st9{opacity:4.733728e-02;fill:none;stroke:#F7F7FA;stroke-width:8;stroke-miterlimit:10;}
	.st10{opacity:5.325444e-02;fill:none;stroke:#F6F6F9;stroke-width:8;stroke-miterlimit:10;}
	.st11{opacity:5.917160e-02;fill:none;stroke:#F5F5F8;stroke-width:8;stroke-miterlimit:10;}
	.st12{opacity:6.508876e-02;fill:none;stroke:#F4F4F8;stroke-width:8;stroke-miterlimit:10;}
	.st13{opacity:7.100592e-02;fill:none;stroke:#F3F3F7;stroke-width:8;stroke-miterlimit:10;}
	.st14{opacity:7.692308e-02;fill:none;stroke:#F2F2F7;stroke-width:8;stroke-miterlimit:10;}
	.st15{opacity:8.284023e-02;fill:none;stroke:#F1F1F6;stroke-width:8;stroke-miterlimit:10;}
	.st16{opacity:8.875740e-02;fill:none;stroke:#F0F0F5;stroke-width:8;stroke-miterlimit:10;}
	.st17{opacity:9.467456e-02;fill:none;stroke:#EFEFF5;stroke-width:8;stroke-miterlimit:10;}
	.st18{opacity:0.1006;fill:none;stroke:#EEEEF4;stroke-width:8;stroke-miterlimit:10;}
	.st19{opacity:0.1065;fill:none;stroke:#EDEDF3;stroke-width:8;stroke-miterlimit:10;}
	.st20{opacity:0.1124;fill:none;stroke:#ECECF3;stroke-width:8;stroke-miterlimit:10;}
	.st21{opacity:0.1183;fill:none;stroke:#EBEBF2;stroke-width:8;stroke-miterlimit:10;}
	.st22{opacity:0.1243;fill:none;stroke:#EAEAF1;stroke-width:8;stroke-miterlimit:10;}
	.st23{opacity:0.1302;fill:none;stroke:#E9E9F1;stroke-width:8;stroke-miterlimit:10;}
	.st24{opacity:0.1361;fill:none;stroke:#E8E8F0;stroke-width:8;stroke-miterlimit:10;}
	.st25{opacity:0.142;fill:none;stroke:#E7E7EF;stroke-width:8;stroke-miterlimit:10;}
	.st26{opacity:0.1479;fill:none;stroke:#E6E6EF;stroke-width:8;stroke-miterlimit:10;}
	.st27{opacity:0.1538;fill:none;stroke:#E5E5EE;stroke-width:8;stroke-miterlimit:10;}
	.st28{opacity:0.1598;fill:none;stroke:#E4E4ED;stroke-width:8;stroke-miterlimit:10;}
	.st29{opacity:0.1657;fill:none;stroke:#E3E3ED;stroke-width:8;stroke-miterlimit:10;}
	.st30{opacity:0.1716;fill:none;stroke:#E2E2EC;stroke-width:8;stroke-miterlimit:10;}
	.st31{opacity:0.1775;fill:none;stroke:#E1E1EB;stroke-width:8;stroke-miterlimit:10;}
	.st32{opacity:0.1834;fill:none;stroke:#E0E0EB;stroke-width:8;stroke-miterlimit:10;}
	.st33{opacity:0.1893;fill:none;stroke:#DFDFEA;stroke-width:8;stroke-miterlimit:10;}
	.st34{opacity:0.1953;fill:none;stroke:#DEDEEA;stroke-width:8;stroke-miterlimit:10;}
	.st35{opacity:0.2012;fill:none;stroke:#DDDDE9;stroke-width:8;stroke-miterlimit:10;}
	.st36{opacity:0.2071;fill:none;stroke:#DCDCE8;stroke-width:8;stroke-miterlimit:10;}
	.st37{opacity:0.213;fill:none;stroke:#DBDBE8;stroke-width:8;stroke-miterlimit:10;}
	.st38{opacity:0.2189;fill:none;stroke:#DADAE7;stroke-width:8;stroke-miterlimit:10;}
	.st39{opacity:0.2249;fill:none;stroke:#D9D9E6;stroke-width:8;stroke-miterlimit:10;}
	.st40{opacity:0.2308;fill:none;stroke:#D8D8E6;stroke-width:8;stroke-miterlimit:10;}
	.st41{opacity:0.2367;fill:none;stroke:#D7D7E5;stroke-width:8;stroke-miterlimit:10;}
	.st42{opacity:0.2426;fill:none;stroke:#D6D6E4;stroke-width:8;stroke-miterlimit:10;}
	.st43{opacity:0.2485;fill:none;stroke:#D5D5E4;stroke-width:8;stroke-miterlimit:10;}
	.st44{opacity:0.2544;fill:none;stroke:#D4D4E3;stroke-width:8;stroke-miterlimit:10;}
	.st45{opacity:0.2604;fill:none;stroke:#D3D3E2;stroke-width:8;stroke-miterlimit:10;}
	.st46{opacity:0.2663;fill:none;stroke:#D2D2E2;stroke-width:8;stroke-miterlimit:10;}
	.st47{opacity:0.2722;fill:none;stroke:#D1D1E1;stroke-width:8;stroke-miterlimit:10;}
	.st48{opacity:0.2781;fill:none;stroke:#D0D0E0;stroke-width:8;stroke-miterlimit:10;}
	.st49{opacity:0.284;fill:none;stroke:#CFCFE0;stroke-width:8;stroke-miterlimit:10;}
	.st50{opacity:0.2899;fill:none;stroke:#CECEDF;stroke-width:8;stroke-miterlimit:10;}
	.st51{opacity:0.2959;fill:none;stroke:#CDCDDE;stroke-width:8;stroke-miterlimit:10;}
	.st52{opacity:0.3018;fill:none;stroke:#CCCCDE;stroke-width:8;stroke-miterlimit:10;}
	.st53{opacity:0.3077;fill:none;stroke:#CBCBDD;stroke-width:8;stroke-miterlimit:10;}
	.st54{opacity:0.3136;fill:none;stroke:#CACADD;stroke-width:8;stroke-miterlimit:10;}
	.st55{opacity:0.3195;fill:none;stroke:#C9C9DC;stroke-width:8;stroke-miterlimit:10;}
	.st56{opacity:0.3254;fill:none;stroke:#C8C8DB;stroke-width:8;stroke-miterlimit:10;}
	.st57{opacity:0.3314;fill:none;stroke:#C7C7DB;stroke-width:8;stroke-miterlimit:10;}
	.st58{opacity:0.3373;fill:none;stroke:#C6C6DA;stroke-width:8;stroke-miterlimit:10;}
	.st59{opacity:0.3432;fill:none;stroke:#C5C5D9;stroke-width:8;stroke-miterlimit:10;}
	.st60{opacity:0.3491;fill:none;stroke:#C4C4D9;stroke-width:8;stroke-miterlimit:10;}
	.st61{opacity:0.355;fill:none;stroke:#C3C3D8;stroke-width:8;stroke-miterlimit:10;}
	.st62{opacity:0.3609;fill:none;stroke:#C2C2D7;stroke-width:8;stroke-miterlimit:10;}
	.st63{opacity:0.3669;fill:none;stroke:#C1C1D7;stroke-width:8;stroke-miterlimit:10;}
	.st64{opacity:0.3728;fill:none;stroke:#C0C0D6;stroke-width:8;stroke-miterlimit:10;}
	.st65{opacity:0.3787;fill:none;stroke:#BFBFD5;stroke-width:8;stroke-miterlimit:10;}
	.st66{opacity:0.3846;fill:none;stroke:#BEBED5;stroke-width:8;stroke-miterlimit:10;}
	.st67{opacity:0.3905;fill:none;stroke:#BDBDD4;stroke-width:8;stroke-miterlimit:10;}
	.st68{opacity:0.3964;fill:none;stroke:#BCBCD3;stroke-width:8;stroke-miterlimit:10;}
	.st69{opacity:0.4024;fill:none;stroke:#BBBBD3;stroke-width:8;stroke-miterlimit:10;}
	.st70{opacity:0.4083;fill:none;stroke:#BABAD2;stroke-width:8;stroke-miterlimit:10;}
	.st71{opacity:0.4142;fill:none;stroke:#B9B9D1;stroke-width:8;stroke-miterlimit:10;}
	.st72{opacity:0.4201;fill:none;stroke:#B8B8D1;stroke-width:8;stroke-miterlimit:10;}
	.st73{opacity:0.426;fill:none;stroke:#B7B7D0;stroke-width:8;stroke-miterlimit:10;}
	.st74{opacity:0.432;fill:none;stroke:#B6B6CF;stroke-width:8;stroke-miterlimit:10;}
	.st75{opacity:0.4379;fill:none;stroke:#B5B5CF;stroke-width:8;stroke-miterlimit:10;}
	.st76{opacity:0.4438;fill:none;stroke:#B4B4CE;stroke-width:8;stroke-miterlimit:10;}
	.st77{opacity:0.4497;fill:none;stroke:#B3B3CE;stroke-width:8;stroke-miterlimit:10;}
	.st78{opacity:0.4556;fill:none;stroke:#B2B2CD;stroke-width:8;stroke-miterlimit:10;}
	.st79{opacity:0.4615;fill:none;stroke:#B1B1CC;stroke-width:8;stroke-miterlimit:10;}
	.st80{opacity:0.4675;fill:none;stroke:#B0B0CC;stroke-width:8;stroke-miterlimit:10;}
	.st81{opacity:0.4734;fill:none;stroke:#AFAFCB;stroke-width:8;stroke-miterlimit:10;}
	.st82{opacity:0.4793;fill:none;stroke:#AEAECA;stroke-width:8;stroke-miterlimit:10;}
	.st83{opacity:0.4852;fill:none;stroke:#ADADCA;stroke-width:8;stroke-miterlimit:10;}
	.st84{opacity:0.4911;fill:none;stroke:#ACACC9;stroke-width:8;stroke-miterlimit:10;}
	.st85{opacity:0.497;fill:none;stroke:#ABABC8;stroke-width:8;stroke-miterlimit:10;}
	.st86{opacity:0.503;fill:none;stroke:#AAAAC8;stroke-width:8;stroke-miterlimit:10;}
	.st87{opacity:0.5089;fill:none;stroke:#A9A9C7;stroke-width:8;stroke-miterlimit:10;}
	.st88{opacity:0.5148;fill:none;stroke:#A8A8C6;stroke-width:8;stroke-miterlimit:10;}
	.st89{opacity:0.5207;fill:none;stroke:#A7A7C6;stroke-width:8;stroke-miterlimit:10;}
	.st90{opacity:0.5266;fill:none;stroke:#A6A6C5;stroke-width:8;stroke-miterlimit:10;}
	.st91{opacity:0.5325;fill:none;stroke:#A5A5C4;stroke-width:8;stroke-miterlimit:10;}
	.st92{opacity:0.5385;fill:none;stroke:#A4A4C4;stroke-width:8;stroke-miterlimit:10;}
	.st93{opacity:0.5444;fill:none;stroke:#A3A3C3;stroke-width:8;stroke-miterlimit:10;}
	.st94{opacity:0.5503;fill:none;stroke:#A2A2C2;stroke-width:8;stroke-miterlimit:10;}
	.st95{opacity:0.5562;fill:none;stroke:#A1A1C2;stroke-width:8;stroke-miterlimit:10;}
	.st96{opacity:0.5621;fill:none;stroke:#A0A0C1;stroke-width:8;stroke-miterlimit:10;}
	.st97{opacity:0.568;fill:none;stroke:#9F9FC1;stroke-width:8;stroke-miterlimit:10;}
	.st98{opacity:0.574;fill:none;stroke:#9E9EC0;stroke-width:8;stroke-miterlimit:10;}
	.st99{opacity:0.5799;fill:none;stroke:#9D9DBF;stroke-width:8;stroke-miterlimit:10;}
	.st100{opacity:0.5858;fill:none;stroke:#9C9CBF;stroke-width:8;stroke-miterlimit:10;}
	.st101{opacity:0.5917;fill:none;stroke:#9B9BBE;stroke-width:8;stroke-miterlimit:10;}
	.st102{opacity:0.5976;fill:none;stroke:#9A9ABD;stroke-width:8;stroke-miterlimit:10;}
	.st103{opacity:0.6036;fill:none;stroke:#9999BD;stroke-width:8;stroke-miterlimit:10;}
	.st104{opacity:0.6095;fill:none;stroke:#9898BC;stroke-width:8;stroke-miterlimit:10;}
	.st105{opacity:0.6154;fill:none;stroke:#9797BB;stroke-width:8;stroke-miterlimit:10;}
	.st106{opacity:0.6213;fill:none;stroke:#9696BB;stroke-width:8;stroke-miterlimit:10;}
	.st107{opacity:0.6272;fill:none;stroke:#9595BA;stroke-width:8;stroke-miterlimit:10;}
	.st108{opacity:0.6331;fill:none;stroke:#9494B9;stroke-width:8;stroke-miterlimit:10;}
	.st109{opacity:0.6391;fill:none;stroke:#9393B9;stroke-width:8;stroke-miterlimit:10;}
	.st110{opacity:0.645;fill:none;stroke:#9292B8;stroke-width:8;stroke-miterlimit:10;}
	.st111{opacity:0.6509;fill:none;stroke:#9191B7;stroke-width:8;stroke-miterlimit:10;}
	.st112{opacity:0.6568;fill:none;stroke:#9090B7;stroke-width:8;stroke-miterlimit:10;}
	.st113{opacity:0.6627;fill:none;stroke:#8F8FB6;stroke-width:8;stroke-miterlimit:10;}
	.st114{opacity:0.6686;fill:none;stroke:#8E8EB5;stroke-width:8;stroke-miterlimit:10;}
	.st115{opacity:0.6746;fill:none;stroke:#8D8DB5;stroke-width:8;stroke-miterlimit:10;}
	.st116{opacity:0.6805;fill:none;stroke:#8C8CB4;stroke-width:8;stroke-miterlimit:10;}
	.st117{opacity:0.6864;fill:none;stroke:#8B8BB3;stroke-width:8;stroke-miterlimit:10;}
	.st118{opacity:0.6923;fill:none;stroke:#8A8AB3;stroke-width:8;stroke-miterlimit:10;}
	.st119{opacity:0.6982;fill:none;stroke:#8989B2;stroke-width:8;stroke-miterlimit:10;}
	.st120{opacity:0.7041;fill:none;stroke:#8888B2;stroke-width:8;stroke-miterlimit:10;}
	.st121{opacity:0.7101;fill:none;stroke:#8787B1;stroke-width:8;stroke-miterlimit:10;}
	.st122{opacity:0.716;fill:none;stroke:#8686B0;stroke-width:8;stroke-miterlimit:10;}
	.st123{opacity:0.7219;fill:none;stroke:#8585B0;stroke-width:8;stroke-miterlimit:10;}
	.st124{opacity:0.7278;fill:none;stroke:#8484AF;stroke-width:8;stroke-miterlimit:10;}
	.st125{opacity:0.7337;fill:none;stroke:#8383AE;stroke-width:8;stroke-miterlimit:10;}
	.st126{opacity:0.7396;fill:none;stroke:#8282AE;stroke-width:8;stroke-miterlimit:10;}
	.st127{opacity:0.7456;fill:none;stroke:#8181AD;stroke-width:8;stroke-miterlimit:10;}
	.st128{opacity:0.7515;fill:none;stroke:#8080AC;stroke-width:8;stroke-miterlimit:10;}
	.st129{opacity:0.7574;fill:none;stroke:#7F7FAC;stroke-width:8;stroke-miterlimit:10;}
	.st130{opacity:0.7633;fill:none;stroke:#7E7EAB;stroke-width:8;stroke-miterlimit:10;}
	.st131{opacity:0.7692;fill:none;stroke:#7D7DAA;stroke-width:8;stroke-miterlimit:10;}
	.st132{opacity:0.7751;fill:none;stroke:#7C7CAA;stroke-width:8;stroke-miterlimit:10;}
	.st133{opacity:0.7811;fill:none;stroke:#7B7BA9;stroke-width:8;stroke-miterlimit:10;}
	.st134{opacity:0.787;fill:none;stroke:#7A7AA8;stroke-width:8;stroke-miterlimit:10;}
	.st135{opacity:0.7929;fill:none;stroke:#7979A8;stroke-width:8;stroke-miterlimit:10;}
	.st136{opacity:0.7988;fill:none;stroke:#7878A7;stroke-width:8;stroke-miterlimit:10;}
	.st137{opacity:0.8047;fill:none;stroke:#7777A6;stroke-width:8;stroke-miterlimit:10;}
	.st138{opacity:0.8107;fill:none;stroke:#7676A6;stroke-width:8;stroke-miterlimit:10;}
	.st139{opacity:0.8166;fill:none;stroke:#7575A5;stroke-width:8;stroke-miterlimit:10;}
	.st140{opacity:0.8225;fill:none;stroke:#7474A5;stroke-width:8;stroke-miterlimit:10;}
	.st141{opacity:0.8284;fill:none;stroke:#7373A4;stroke-width:8;stroke-miterlimit:10;}
	.st142{opacity:0.8343;fill:none;stroke:#7272A3;stroke-width:8;stroke-miterlimit:10;}
	.st143{opacity:0.8402;fill:none;stroke:#7171A3;stroke-width:8;stroke-miterlimit:10;}
	.st144{opacity:0.8462;fill:none;stroke:#7070A2;stroke-width:8;stroke-miterlimit:10;}
	.st145{opacity:0.8521;fill:none;stroke:#6F6FA1;stroke-width:8;stroke-miterlimit:10;}
	.st146{opacity:0.858;fill:none;stroke:#6E6EA1;stroke-width:8;stroke-miterlimit:10;}
	.st147{opacity:0.8639;fill:none;stroke:#6D6DA0;stroke-width:8;stroke-miterlimit:10;}
	.st148{opacity:0.8698;fill:none;stroke:#6C6C9F;stroke-width:8;stroke-miterlimit:10;}
	.st149{opacity:0.8757;fill:none;stroke:#6B6B9F;stroke-width:8;stroke-miterlimit:10;}
	.st150{opacity:0.8817;fill:none;stroke:#6A6A9E;stroke-width:8;stroke-miterlimit:10;}
	.st151{opacity:0.8876;fill:none;stroke:#69699D;stroke-width:8;stroke-miterlimit:10;}
	.st152{opacity:0.8935;fill:none;stroke:#68689D;stroke-width:8;stroke-miterlimit:10;}
	.st153{opacity:0.8994;fill:none;stroke:#67679C;stroke-width:8;stroke-miterlimit:10;}
	.st154{opacity:0.9053;fill:none;stroke:#66669B;stroke-width:8;stroke-miterlimit:10;}
	.st155{opacity:0.9112;fill:none;stroke:#65659B;stroke-width:8;stroke-miterlimit:10;}
	.st156{opacity:0.9172;fill:none;stroke:#64649A;stroke-width:8;stroke-miterlimit:10;}
	.st157{opacity:0.9231;fill:none;stroke:#636399;stroke-width:8;stroke-miterlimit:10;}
	.st158{opacity:0.929;fill:none;stroke:#626299;stroke-width:8;stroke-miterlimit:10;}
	.st159{opacity:0.9349;fill:none;stroke:#616198;stroke-width:8;stroke-miterlimit:10;}
	.st160{opacity:0.9408;fill:none;stroke:#606098;stroke-width:8;stroke-miterlimit:10;}
	.st161{opacity:0.9467;fill:none;stroke:#5F5F97;stroke-width:8;stroke-miterlimit:10;}
	.st162{opacity:0.9527;fill:none;stroke:#5E5E96;stroke-width:8;stroke-miterlimit:10;}
	.st163{opacity:0.9586;fill:none;stroke:#5D5D96;stroke-width:8;stroke-miterlimit:10;}
	.st164{opacity:0.9645;fill:none;stroke:#5C5C95;stroke-width:8;stroke-miterlimit:10;}
	.st165{opacity:0.9704;fill:none;stroke:#5B5B94;stroke-width:8;stroke-miterlimit:10;}
	.st166{opacity:0.9763;fill:none;stroke:#5A5A94;stroke-width:8;stroke-miterlimit:10;}
	.st167{opacity:0.9822;fill:none;stroke:#595993;stroke-width:8;stroke-miterlimit:10;}
	.st168{opacity:0.9882;fill:none;stroke:#585892;stroke-width:8;stroke-miterlimit:10;}
	.st169{opacity:0.9941;fill:none;stroke:#575792;stroke-width:8;stroke-miterlimit:10;}
	.st170{fill:none;stroke:#565691;stroke-width:8;stroke-miterlimit:10;}
	.st171{fill:#4D4D4D;}
</style>
<g class="st0">
	<path class="st1" d="M1325.2,7283.8H865.4c-53,0-96-43-96-96v-858.6c0-53,43-96,96-96h104.4c53,0,96-47,96-100V5020.4
		c0-53-43-96-96-96H521.7c-53,0-96-43-96-96V3772.8c0-53,43-96,96-96h150.8c53,0,96-43,96-96V2575.4c0-53,43-96,96-96h361.5
		c53,0,96-43,96-96V1171.9c0-53-43-96-96-96H918.8c-53,0-96-43-96-96V-5.4c0-53-43-96-96-96H177.9"/>
	<path class="st2" d="M1325.2,7284.4H864.8c-53,0-96-43-96-96v-858.6c0-53,43-96,96-96h104.4c53,0,96-47,96-100V5021
		c0-53-43-96-96-96H521.1c-53,0-96-43-96-96V3773.3c0-53,43-96,96-96H672c53,0,96-43,96-96V2576c0-53,43-96,96-96h361.5
		c53,0,96-43,96-96V1172.5c0-53-43-96-96-96H918.2c-53,0-96-43-96-96V-4.8c0-53-43-96-96-96H177.9"/>
	<path class="st3" d="M1325.2,7284.9h-461c-53,0-96-43-96-96v-858.6c0-53,43-96,96-96h104.4c53,0,96-47,96-100V5021.6
		c0-53-43-96-96-96H520.5c-53,0-96-43-96-96V3773.9c0-53,43-96,96-96h150.8c53,0,96-43,96-96V2576.5c0-53,43-96,96-96H1225
		c53,0,96-43,96-96V1173.1c0-53-43-96-96-96H917.6c-53,0-96-43-96-96V-4.3c0-53-43-96-96-96H177.9"/>
	<path class="st4" d="M1325.2,7285.5H863.6c-53,0-96-43-96-96v-858.6c0-53,43-96,96-96h104.4c53,0,96-46.9,96-100V5022.1
		c0-53-43-96-96-96H520c-53,0-96-43-96-96V3774.5c0-53,43-96,96-96h150.8c53,0,96-43,96-96V2577.1c0-53,43-96,96-96h361.5
		c53,0,96-43,96-96V1173.7c0-53-43-96-96-96H917c-53,0-96-43-96-96V-3.7c0-53-43-96-96-96H177.9"/>
	<path class="st5" d="M1325.2,7286.1H863c-53,0-96-43-96-96v-858.6c0-53,43-96,96-96h104.4c53,0,96-46.9,96-99.9V5022.7
		c0-53-43-96-96-96H519.4c-53,0-96-43-96-96V3775.1c0-53,43-96,96-96h150.8c53,0,96-43,96-96V2577.7c0-53,43-96,96-96h361.5
		c53,0,96-43,96-96V1174.2c0-53-43-96-96-96H916.4c-53,0-96-43-96-96V-3.1c0-53-43-96-96-96H177.9"/>
	<path class="st6" d="M1325.2,7286.6H862.5c-53,0-96-43-96-96V6332c0-53,43-96,96-96h104.4c53,0,96-46.9,96-99.9V5023.3
		c0-53-43-96-96-96H518.8c-53,0-96-43-96-96V3775.6c0-53,43-96,96-96h150.8c53,0,96-43,96-96V2578.3c0-53,43-96,96-96h361.5
		c53,0,96-43,96-96V1174.8c0-53-43-96-96-96H915.9c-53,0-96-43-96-96V-2.5c0-53-43-96-96-96H177.9"/>
	<path class="st7" d="M1325.2,7287.2H861.9c-53,0-96-43-96-96v-858.6c0-53,43-96,96-96h104.4c53,0,96-46.9,96-99.9V5023.8
		c0-53-43-96-96-96H518.2c-53,0-96-43-96-96V3776.2c0-53,43-96,96-96H669c53,0,96-43,96-96V2578.8c0-53,43-96,96-96h361.5
		c53,0,96-43,96-96V1175.4c0-53-43-96-96-96H915.3c-53,0-96-43-96-96V-2c0-53-43-96-96-96H177.9"/>
	<path class="st8" d="M1325.2,7287.8H861.3c-53,0-96-43-96-96v-858.6c0-53,43-96,96-96h104.4c53,0,96-46.8,96-99.9V5024.4
		c0-53-43-96-96-96H517.6c-53,0-96-43-96-96V3776.8c0-53,43-96,96-96h150.8c53,0,96-43,96-96V2579.4c0-53,43-96,96-96H1222
		c53,0,96-43,96-96V1175.9c0-53-43-96-96-96H914.7c-53,0-96-43-96-96V-1.4c0-53-43-96-96-96H177.9"/>
	<path class="st9" d="M1325.2,7288.3H860.7c-53,0-96-43-96-96v-858.6c0-53,43-96,96-96h104.4c53,0,96-46.8,96-99.9V5025
		c0-53-43-96-96-96H517c-53,0-96-43-96-96V3777.3c0-53,43-96,96-96h150.8c53,0,96-43,96-96V2580c0-53,43-96,96-96h361.5
		c53,0,96-43,96-96V1176.5c0-53-43-96-96-96H914.1c-53,0-96-43-96-96V-0.8c0-53-43-96-96-96H177.9"/>
	<path class="st10" d="M1325.2,7288.9H860.1c-53,0-96-43-96-96v-858.6c0-53,43-96,96-96h104.4c53,0,96-46.8,96-99.8V5025.6
		c0-53-43-96-96-96H516.4c-53,0-96-43-96-96V3777.9c0-53,43-96,96-96h150.8c53,0,96-43,96-96V2580.5c0-53,43-96,96-96h361.5
		c53,0,96-43,96-96V1177.1c0-53-43-96-96-96H913.5c-53,0-96-43-96-96V-0.3c0-53-43-96-96-96H177.9"/>
	<path class="st11" d="M1325.2,7289.5H859.5c-53,0-96-43-96-96v-858.6c0-53,43-96,96-96h104.4c53,0,96-46.8,96-99.8V5026.1
		c0-53-43-96-96-96H515.8c-53,0-96-43-96-96V3778.5c0-53,43-96,96-96h150.8c53,0,96-43,96-96V2581.1c0-53,43-96,96-96h361.5
		c53,0,96-43,96-96V1177.6c0-53-43-96-96-96H912.9c-53,0-96-43-96-96V0.3c0-53-43-96-96-96h-543"/>
	<path class="st12" d="M1325.2,7290.1H858.9c-53,0-96-43-96-96v-858.6c0-53,43-96,96-96h104.4c53,0,96-46.7,96-99.8V5026.7
		c0-53-43-96-96-96H515.2c-53,0-96-43-96-96V3779c0-53,43-96,96-96h150.8c53,0,96-43,96-96V2581.7c0-53,43-96,96-96h361.5
		c53,0,96-43,96-96V1178.2c0-53-43-96-96-96H912.3c-53,0-96-43-96-96V0.9c0-53-43-96-96-96H177.9"/>
	<path class="st13" d="M1325.2,7290.6H858.3c-53,0-96-43-96-96V6336c0-53,43-96,96-96h104.4c53,0,96-46.7,96-99.8V5027.3
		c0-53-43-96-96-96H514.7c-53,0-96-43-96-96V3779.6c0-53,43-96,96-96h150.8c53,0,96-43,96-96V2582.2c0-53,43-96,96-96h361.5
		c53,0,96-43,96-96V1178.8c0-53-43-96-96-96H911.7c-53,0-96-43-96-96V1.4c0-53-43-96-96-96H177.9"/>
	<path class="st14" d="M1325.2,7291.2H857.7c-53,0-96-43-96-96v-858.6c0-53,43-96,96-96h104.4c53,0,96-46.7,96-99.7V5027.8
		c0-53-43-96-96-96H514.1c-53,0-96-43-96-96V3780.2c0-53,43-96,96-96h150.8c53,0,96-43,96-96V2582.8c0-53,43-96,96-96h361.5
		c53,0,96-43,96-96V1179.4c0-53-43-96-96-96H911.1c-53,0-96-43-96-96V2c0-53-43-96-96-96H177.9"/>
	<path class="st15" d="M1325.2,7291.8h-468c-53,0-96-43-96-96v-858.6c0-53,43-96,96-96h104.4c53,0,96-46.7,96-99.7v-1113
		c0-53-43-96-96-96H513.5c-53,0-96-43-96-96V3780.8c0-53,43-96,96-96h150.8c53,0,96-43,96-96V2583.4c0-53,43-96,96-96h361.5
		c53,0,96-43,96-96V1179.9c0-53-43-96-96-96H910.6c-53,0-96-43-96-96V2.6c0-53-43-96-96-96H177.9"/>
	<path class="st16" d="M1325.2,7292.3H856.6c-53,0-96-43-96-96v-858.6c0-53,43-96,96-96H961c53,0,96-46.6,96-99.7V5029
		c0-53-43-96-96-96H512.9c-53,0-96-43-96-96V3781.3c0-53,43-96,96-96h150.8c53,0,96-43,96-96V2584c0-53,43-96,96-96h361.5
		c53,0,96-43,96-96V1180.5c0-53-43-96-96-96H910c-53,0-96-43-96-96V3.2c0-53-43-96-96-96h-540"/>
	<path class="st17" d="M1325.2,7292.9H856c-53,0-96-43-96-96v-858.6c0-53,43-96,96-96h104.4c53,0,96-46.6,96-99.7v-1113
		c0-53-43-96-96-96H512.3c-53,0-96-43-96-96V3781.9c0-53,43-96,96-96h150.8c53,0,96-43,96-96V2584.5c0-53,43-96,96-96h361.5
		c53,0,96-43,96-96V1181.1c0-53-43-96-96-96H909.4c-53,0-96-43-96-96V3.7c0-53-43-96-96-96H177.9"/>
	<path class="st18" d="M1325.2,7293.5H855.4c-53,0-96-43-96-96v-858.6c0-53,43-96,96-96h104.4c53,0,96-46.6,96-99.6v-1113
		c0-53-43-96-96-96H511.7c-53,0-96-43-96-96V3782.5c0-53,43-96,96-96h150.8c53,0,96-43,96-96V2585.1c0-53,43-96,96-96h361.5
		c53,0,96-43,96-96V1181.6c0-53-43-96-96-96H908.8c-53,0-96-43-96-96V4.3c0-53-43-96-96-96H177.9"/>
	<path class="st19" d="M1325.2,7294H854.8c-53,0-96-43-96-96v-858.6c0-53,43-96,96-96h104.4c53,0,96-46.6,96-99.6V5030.7
		c0-53-43-96-96-96H511.1c-53,0-96-43-96-96V3783c0-53,43-96,96-96H662c53,0,96-43,96-96V2585.7c0-53,43-96,96-96h361.5
		c53,0,96-43,96-96V1182.2c0-53-43-96-96-96H908.2c-53,0-96-43-96-96V4.9c0-53-43-96-96-96H177.9"/>
	<path class="st20" d="M1325.2,7294.6h-471c-53,0-96-43-96-96V6340c0-53,43-96,96-96h104.4c53,0,96-46.5,96-99.6V5031.3
		c0-53-43-96-96-96H510.5c-53,0-96-43-96-96V3783.6c0-53,43-96,96-96h150.8c53,0,96-43,96-96V2586.2c0-53,43-96,96-96h361.5
		c53,0,96-43,96-96V1182.8c0-53-43-96-96-96H907.6c-53,0-96-43-96-96V5.4c0-53-43-96-96-96H177.9"/>
	<path class="st21" d="M1325.2,7295.2H853.6c-53,0-96-43-96-96v-858.6c0-53,43-96,96-96h104.4c53,0,96-46.5,96-99.6V5031.8
		c0-53-43-96-96-96H509.9c-53,0-96-43-96-96V3784.2c0-53,43-96,96-96h150.8c53,0,96-43,96-96V2586.8c0-53,43-96,96-96h361.5
		c53,0,96-43,96-96V1183.3c0-53-43-96-96-96H907c-53,0-96-43-96-96V6c0-53-43-96-96-96H177.9"/>
	<path class="st22" d="M1325.2,7295.8H853c-53,0-96-43-96-96v-858.6c0-53,43-96,96-96h104.4c53,0,96-46.5,96-99.5V5032.4
		c0-53-43-96-96-96H509.4c-53,0-96-43-96-96V3784.7c0-53,43-96,96-96h150.8c53,0,96-43,96-96V2587.4c0-53,43-96,96-96h361.5
		c53,0,96-43,96-96V1183.9c0-53-43-96-96-96H906.4c-53,0-96-43-96-96V6.6c0-53-43-96-96-96H177.9"/>
	<path class="st23" d="M1325.2,7296.3H852.4c-53,0-96-43-96-96v-858.6c0-53,43-96,96-96h104.4c53,0,96-46.5,96-99.5V5033
		c0-53-43-96-96-96H508.8c-53,0-96-43-96-96V3785.3c0-53,43-96,96-96h150.8c53,0,96-43,96-96V2587.9c0-53,43-96,96-96h361.5
		c53,0,96-43,96-96V1184.5c0-53-43-96-96-96H905.8c-53,0-96-43-96-96V7.1c0-53-43-96-96-96H177.9"/>
	<path class="st24" d="M1325.2,7296.9H851.9c-53,0-96-43-96-96v-858.6c0-53,43-96,96-96h104.4c53,0,96-46.5,96-99.5V5033.5
		c0-53-43-96-96-96H508.2c-53,0-96-43-96-96V3785.9c0-53,43-96,96-96H659c53,0,96-43,96-96V2588.5c0-53,43-96,96-96h361.5
		c53,0,96-43,96-96V1185.1c0-53-43-96-96-96H905.3c-53,0-96-43-96-96V7.7c0-53-43-96-96-96H177.9"/>
	<path class="st25" d="M1325.2,7297.5H851.3c-53,0-96-43-96-96v-858.6c0-53,43-96,96-96h104.4c53,0,96-46.4,96-99.5V5034.1
		c0-53-43-96-96-96H507.6c-53,0-96-43-96-96V3786.5c0-53,43-96,96-96h150.8c53,0,96-43,96-96V2589.1c0-53,43-96,96-96H1212
		c53,0,96-43,96-96V1185.6c0-53-43-96-96-96H904.7c-53,0-96-43-96-96V8.3c0-53-43-96-96-96H177.9"/>
	<path class="st26" d="M1325.2,7298H850.7c-53,0-96-43-96-96v-858.6c0-53,43-96,96-96h104.4c53,0,96-46.4,96-99.4V5034.7
		c0-53-43-96-96-96H507c-53,0-96-43-96-96V3787c0-53,43-96,96-96h150.8c53,0,96-43,96-96V2589.7c0-53,43-96,96-96h361.5
		c53,0,96-43,96-96V1186.2c0-53-43-96-96-96H904.1c-53,0-96-43-96-96V8.9c0-53-43-96-96-96H177.9"/>
	<path class="st27" d="M1325.2,7298.6H850.1c-53,0-96-43-96-96V6344c0-53,43-96,96-96h104.4c53,0,96-46.4,96-99.4V5035.2
		c0-53-43-96-96-96H506.4c-53,0-96-43-96-96V3787.6c0-53,43-96,96-96h150.8c53,0,96-43,96-96V2590.2c0-53,43-96,96-96h361.5
		c53,0,96-43,96-96V1186.8c0-53-43-96-96-96H903.5c-53,0-96-43-96-96V9.4c0-53-43-96-96-96H177.9"/>
	<path class="st28" d="M1325.2,7299.2H849.5c-53,0-96-43-96-96v-858.6c0-53,43-96,96-96h104.4c53,0,96-46.4,96-99.4V5035.8
		c0-53-43-96-96-96H505.8c-53,0-96-43-96-96V3788.2c0-53,43-96,96-96h150.8c53,0,96-43,96-96V2590.8c0-53,43-96,96-96h361.5
		c53,0,96-43,96-96V1187.3c0-53-43-96-96-96H902.9c-53,0-96-43-96-96V10c0-53-43-96-96-96H177.9"/>
	<path class="st29" d="M1325.2,7299.7H848.9c-53,0-96-43-96-96v-858.6c0-53,43-96,96-96h104.4c53,0,96-46.3,96-99.4V5036.4
		c0-53-43-96-96-96H505.2c-53,0-96-43-96-96V3788.7c0-53,43-96,96-96h150.8c53,0,96-43,96-96V2591.4c0-53,43-96,96-96h361.5
		c53,0,96-43,96-96V1187.9c0-53-43-96-96-96H902.3c-53,0-96-43-96-96V10.6c0-53-43-96-96-96H177.9"/>
	<path class="st30" d="M1325.2,7300.3H848.3c-53,0-96-43-96-96v-858.6c0-53,43-96,96-96h104.4c53,0,96-46.3,96-99.4V5037
		c0-53-43-96-96-96H504.6c-53,0-96-43-96-96V3789.3c0-53,43-96,96-96h150.8c53,0,96-43,96-96V2591.9c0-53,43-96,96-96h361.5
		c53,0,96-43,96-96V1188.5c0-53-43-96-96-96H901.7c-53,0-96-43-96-96V11.1c0-53-43-96-96-96H177.9"/>
	<path class="st31" d="M1325.2,7300.9H847.7c-53,0-96-43-96-96v-858.6c0-53,43-96,96-96h104.4c53,0,96-46.3,96-99.3V5037.5
		c0-53-43-96-96-96H504.1c-53,0-96-43-96-96V3789.9c0-53,43-96,96-96h150.8c53,0,96-43,96-96V2592.5c0-53,43-96,96-96h361.5
		c53,0,96-43,96-96V1189c0-53-43-96-96-96H901.1c-53,0-96-43-96-96V11.7c0-53-43-96-96-96H177.9"/>
	<path class="st32" d="M1325.2,7301.5H847.1c-53,0-96-43-96-96v-858.6c0-53,43-96,96-96h104.4c53,0,96-46.3,96-99.3V5038.1
		c0-53-43-96-96-96H503.5c-53,0-96-43-96-96V3790.4c0-53,43-96,96-96h150.8c53,0,96-43,96-96V2593.1c0-53,43-96,96-96h361.5
		c53,0,96-43,96-96V1189.6c0-53-43-96-96-96H900.5c-53,0-96-43-96-96V12.3c0-53-43-96-96-96H177.9"/>
	<path class="st33" d="M1325.2,7302H846.6c-53,0-96-43-96-96v-858.6c0-53,43-96,96-96H951c53,0,96-46.2,96-99.3V5038.7
		c0-53-43-96-96-96H502.9c-53,0-96-43-96-96V3791c0-53,43-96,96-96h150.8c53,0,96-43,96-96V2593.6c0-53,43-96,96-96h361.5
		c53,0,96-43,96-96V1190.2c0-53-43-96-96-96H900c-53,0-96-43-96-96V12.8c0-53-43-96-96-96h-530"/>
	<path class="st34" d="M1325.2,7302.6H846c-53,0-96-43-96-96v-858.6c0-53,43-96,96-96h104.4c53,0,96-46.2,96-99.3V5039.2
		c0-53-43-96-96-96H502.3c-53,0-96-43-96-96V3791.6c0-53,43-96,96-96h150.8c53,0,96-43,96-96V2594.2c0-53,43-96,96-96h361.5
		c53,0,96-43,96-96V1190.8c0-53-43-96-96-96H899.4c-53,0-96-43-96-96V13.4c0-53-43-96-96-96H177.9"/>
	<path class="st35" d="M1325.2,7303.2H845.4c-53,0-96-43-96-96v-858.6c0-53,43-96,96-96h104.4c53,0,96-46.2,96-99.2V5039.8
		c0-53-43-96-96-96H501.7c-53,0-96-43-96-96V3792.2c0-53,43-96,96-96h150.8c53,0,96-43,96-96V2594.8c0-53,43-96,96-96h361.5
		c53,0,96-43,96-96V1191.3c0-53-43-96-96-96H898.8c-53,0-96-43-96-96V14c0-53-43-96-96-96H177.9"/>
	<path class="st36" d="M1325.2,7303.7H844.8c-53,0-96-43-96-96v-858.6c0-53,43-96,96-96h104.4c53,0,96-46.2,96-99.2V5040.4
		c0-53-43-96-96-96H501.1c-53,0-96-43-96-96V3792.7c0-53,43-96,96-96h150.8c53,0,96-43,96-96V2595.4c0-53,43-96,96-96h361.5
		c53,0,96-43,96-96V1191.9c0-53-43-96-96-96H898.2c-53,0-96-43-96-96V14.6c0-53-43-96-96-96H177.9"/>
	<path class="st37" d="M1325.2,7304.3h-481c-53,0-96-43-96-96v-858.6c0-53,43-96,96-96h104.4c53,0,96-46.1,96-99.2V5040.9
		c0-53-43-96-96-96H500.5c-53,0-96-43-96-96V3793.3c0-53,43-96,96-96h150.8c53,0,96-43,96-96V2595.9c0-53,43-96,96-96h361.5
		c53,0,96-43,96-96V1192.5c0-53-43-96-96-96H897.6c-53,0-96-43-96-96V15.1c0-53-43-96-96-96H177.9"/>
	<path class="st38" d="M1325.2,7304.9H843.6c-53,0-96-43-96-96v-858.6c0-53,43-96,96-96H948c53,0,96-46.1,96-99.2V5041.5
		c0-53-43-96-96-96H499.9c-53,0-96-43-96-96V3793.9c0-53,43-96,96-96h150.8c53,0,96-43,96-96V2596.5c0-53,43-96,96-96h361.5
		c53,0,96-43,96-96V1193c0-53-43-96-96-96H897c-53,0-96-43-96-96V15.7c0-53-43-96-96-96H177.9"/>
	<path class="st39" d="M1325.2,7305.4H843c-53,0-96-43-96-96v-858.6c0-53,43-96,96-96h104.4c53,0,96-46.1,96-99.1V5042.1
		c0-53-43-96-96-96H499.3c-53,0-96-43-96-96V3794.4c0-53,43-96,96-96h150.8c53,0,96-43,96-96V2597.1c0-53,43-96,96-96h361.5
		c53,0,96-43,96-96V1193.6c0-53-43-96-96-96H896.4c-53,0-96-43-96-96V16.3c0-53-43-96-96-96H177.9"/>
	<path class="st40" d="M1325.2,7306H842.4c-53,0-96-43-96-96v-858.6c0-53,43-96,96-96h104.4c53,0,96-46.1,96-99.1V5042.7
		c0-53-43-96-96-96H498.8c-53,0-96-43-96-96V3795c0-53,43-96,96-96h150.8c53,0,96-43,96-96V2597.6c0-53,43-96,96-96h361.5
		c53,0,96-43,96-96V1194.2c0-53-43-96-96-96H895.8c-53,0-96-43-96-96V16.8c0-53-43-96-96-96H177.9"/>
	<path class="st41" d="M1325.2,7306.6H841.8c-53,0-96-43-96-96v-858.6c0-53,43-96,96-96h104.4c53,0,96-46.1,96-99.1V5043.2
		c0-53-43-96-96-96H498.2c-53,0-96-43-96-96V3795.6c0-53,43-96,96-96H649c53,0,96-43,96-96V2598.2c0-53,43-96,96-96h361.5
		c53,0,96-43,96-96V1194.7c0-53-43-96-96-96H895.2c-53,0-96-43-96-96V17.4c0-53-43-96-96-96H177.9"/>
	<path class="st42" d="M1325.2,7307.2H841.3c-53,0-96-43-96-96v-858.6c0-53,43-96,96-96h104.4c53,0,96-46,96-99.1V5043.8
		c0-53-43-96-96-96H497.6c-53,0-96-43-96-96V3796.1c0-53,43-96,96-96h150.8c53,0,96-43,96-96V2598.8c0-53,43-96,96-96H1202
		c53,0,96-43,96-96V1195.3c0-53-43-96-96-96H894.7c-53,0-96-43-96-96V18c0-53-43-96-96-96H177.9"/>
	<path class="st43" d="M1325.2,7307.7H840.7c-53,0-96-43-96-96v-858.6c0-53,43-96,96-96h104.4c53,0,96-46,96-99V5044.4
		c0-53-43-96-96-96H497c-53,0-96-43-96-96V3796.7c0-53,43-96,96-96h150.8c53,0,96-43,96-96V2599.3c0-53,43-96,96-96h361.5
		c53,0,96-43,96-96V1195.9c0-53-43-96-96-96H894.1c-53,0-96-43-96-96V18.5c0-53-43-96-96-96H177.9"/>
	<path class="st44" d="M1325.2,7308.3H840.1c-53,0-96-43-96-96v-858.6c0-53,43-96,96-96h104.4c53,0,96-46,96-99V5044.9
		c0-53-43-96-96-96H496.4c-53,0-96-43-96-96V3797.3c0-53,43-96,96-96h150.8c53,0,96-43,96-96V2599.9c0-53,43-96,96-96h361.5
		c53,0,96-43,96-96V1196.5c0-53-43-96-96-96H893.5c-53,0-96-43-96-96V19.1c0-53-43-96-96-96H177.9"/>
	<path class="st45" d="M1325.2,7308.9H839.5c-53,0-96-43-96-96v-858.6c0-53,43-96,96-96h104.4c53,0,96-46,96-99V5045.5
		c0-53-43-96-96-96H495.8c-53,0-96-43-96-96V3797.9c0-53,43-96,96-96h150.8c53,0,96-43,96-96V2600.5c0-53,43-96,96-96h361.5
		c53,0,96-43,96-96V1197c0-53-43-96-96-96H892.9c-53,0-96-43-96-96V19.7c0-53-43-96-96-96H177.9"/>
	<path class="st46" d="M1325.2,7309.4H838.9c-53,0-96-43-96-96v-858.6c0-53,43-96,96-96h104.4c53,0,96-45.9,96-99V5046.1
		c0-53-43-96-96-96H495.2c-53,0-96-43-96-96V3798.4c0-53,43-96,96-96h150.8c53,0,96-43,96-96V2601.1c0-53,43-96,96-96h361.5
		c53,0,96-43,96-96V1197.6c0-53-43-96-96-96H892.3c-53,0-96-43-96-96V20.3c0-53-43-96-96-96H177.9"/>
	<path class="st47" d="M1325.2,7310H838.3c-53,0-96-43-96-96v-858.6c0-53,43-96,96-96h104.4c53,0,96-45.9,96-99V5046.6
		c0-53-43-96-96-96H494.6c-53,0-96-43-96-96V3799c0-53,43-96,96-96h150.8c53,0,96-43,96-96V2601.6c0-53,43-96,96-96H1199
		c53,0,96-43,96-96V1198.2c0-53-43-96-96-96H891.7c-53,0-96-43-96-96V20.8c0-53-43-96-96-96H177.9"/>
	<path class="st48" d="M1325.2,7310.6H837.7c-53,0-96-43-96-96v-858.6c0-53,43-96,96-96h104.4c53,0,96-45.9,96-98.9V5047.2
		c0-53-43-96-96-96H494c-53,0-96-43-96-96V3799.6c0-53,43-96,96-96h150.8c53,0,96-43,96-96V2602.2c0-53,43-96,96-96h361.5
		c53,0,96-43,96-96V1198.7c0-53-43-96-96-96H891.1c-53,0-96-43-96-96V21.4c0-53-43-96-96-96H177.9"/>
	<path class="st49" d="M1325.2,7311.1H837.1c-53,0-96-43-96-96v-858.6c0-53,43-96,96-96h104.4c53,0,96-45.9,96-98.9V5047.8
		c0-53-43-96-96-96H493.5c-53,0-96-43-96-96V3800.1c0-53,43-96,96-96h150.8c53,0,96-43,96-96V2602.8c0-53,43-96,96-96h361.5
		c53,0,96-43,96-96V1199.3c0-53-43-96-96-96H890.5c-53,0-96-43-96-96V22c0-53-43-96-96-96H177.9"/>
	<path class="st50" d="M1325.2,7311.7H836.5c-53,0-96-43-96-96v-858.6c0-53,43-96,96-96H941c53,0,96-45.8,96-98.9V5048.4
		c0-53-43-96-96-96H492.9c-53,0-96-43-96-96V3800.7c0-53,43-96,96-96h150.8c53,0,96-43,96-96V2603.3c0-53,43-96,96-96h361.5
		c53,0,96-43,96-96V1199.9c0-53-43-96-96-96H889.9c-53,0-96-43-96-96V22.5c0-53-43-96-96-96h-520"/>
	<path class="st51" d="M1325.2,7312.3H836c-53,0-96-43-96-96v-858.6c0-53,43-96,96-96h104.4c53,0,96-45.8,96-98.9V5048.9
		c0-53-43-96-96-96H492.3c-53,0-96-43-96-96V3801.3c0-53,43-96,96-96h150.8c53,0,96-43,96-96V2603.9c0-53,43-96,96-96h361.5
		c53,0,96-43,96-96V1200.4c0-53-43-96-96-96H889.4c-53,0-96-43-96-96V23.1c0-53-43-96-96-96H177.9"/>
	<path class="st52" d="M1325.2,7312.9H835.4c-53,0-96-43-96-96v-858.6c0-53,43-96,96-96h104.4c53,0,96-45.8,96-98.8V5049.5
		c0-53-43-96-96-96H491.7c-53,0-96-43-96-96V3801.8c0-53,43-96,96-96h150.8c53,0,96-43,96-96V2604.5c0-53,43-96,96-96h361.5
		c53,0,96-43,96-96V1201c0-53-43-96-96-96H888.8c-53,0-96-43-96-96V23.7c0-53-43-96-96-96H177.9"/>
	<path class="st53" d="M1325.2,7313.4H834.8c-53,0-96-43-96-96v-858.6c0-53,43-96,96-96h104.4c53,0,96-45.8,96-98.8V5050.1
		c0-53-43-96-96-96H491.1c-53,0-96-43-96-96V3802.4c0-53,43-96,96-96h150.8c53,0,96-43,96-96V2605c0-53,43-96,96-96h361.5
		c53,0,96-43,96-96V1201.6c0-53-43-96-96-96H888.2c-53,0-96-43-96-96V24.2c0-53-43-96-96-96H177.9"/>
	<path class="st54" d="M1325.2,7314h-491c-53,0-96-43-96-96v-858.6c0-53,43-96,96-96h104.4c53,0,96-45.7,96-98.8V5050.6
		c0-53-43-96-96-96H490.5c-53,0-96-43-96-96V3803c0-53,43-96,96-96h150.8c53,0,96-43,96-96V2605.6c0-53,43-96,96-96h361.5
		c53,0,96-43,96-96V1202.1c0-53-43-96-96-96H887.6c-53,0-96-43-96-96V24.8c0-53-43-96-96-96H177.9"/>
	<path class="st55" d="M1325.2,7314.6H833.6c-53,0-96-43-96-96v-858.6c0-53,43-96,96-96H938c53,0,96-45.7,96-98.8V5051.2
		c0-53-43-96-96-96H489.9c-53,0-96-43-96-96V3803.6c0-53,43-96,96-96h150.8c53,0,96-43,96-96V2606.2c0-53,43-96,96-96h361.5
		c53,0,96-43,96-96V1202.7c0-53-43-96-96-96H887c-53,0-96-43-96-96V25.4c0-53-43-96-96-96h-517"/>
	<path class="st56" d="M1325.2,7315.1H833c-53,0-96-43-96-96v-858.6c0-53,43-96,96-96h104.4c53,0,96-45.7,96-98.7V5051.8
		c0-53-43-96-96-96H489.3c-53,0-96-43-96-96V3804.1c0-53,43-96,96-96h150.8c53,0,96-43,96-96V2606.8c0-53,43-96,96-96h361.5
		c53,0,96-43,96-96V1203.3c0-53-43-96-96-96H886.4c-53,0-96-43-96-96V26c0-53-43-96-96-96H177.9"/>
	<path class="st57" d="M1325.2,7315.7H832.4c-53,0-96-43-96-96v-858.6c0-53,43-96,96-96h104.4c53,0,96-45.7,96-98.7v-1114
		c0-53-43-96-96-96H488.7c-53,0-96-43-96-96V3804.7c0-53,43-96,96-96h150.8c53,0,96-43,96-96V2607.3c0-53,43-96,96-96h361.5
		c53,0,96-43,96-96V1203.9c0-53-43-96-96-96H885.8c-53,0-96-43-96-96V26.5c0-53-43-96-96-96H177.9"/>
	<path class="st58" d="M1325.2,7316.3H831.8c-53,0-96-43-96-96v-858.6c0-53,43-96,96-96h104.4c53,0,96-45.6,96-98.7v-1114
		c0-53-43-96-96-96H488.2c-53,0-96-43-96-96V3805.3c0-53,43-96,96-96H639c53,0,96-43,96-96V2607.9c0-53,43-96,96-96h361.5
		c53,0,96-43,96-96V1204.4c0-53-43-96-96-96H885.2c-53,0-96-43-96-96V27.1c0-53-43-96-96-96H177.9"/>
	<path class="st59" d="M1325.2,7316.8h-494c-53,0-96-43-96-96v-858.6c0-53,43-96,96-96h104.4c53,0,96-45.6,96-98.7v-1114
		c0-53-43-96-96-96H487.6c-53,0-96-43-96-96V3805.8c0-53,43-96,96-96h150.8c53,0,96-43,96-96V2608.5c0-53,43-96,96-96H1192
		c53,0,96-43,96-96V1205c0-53-43-96-96-96H884.6c-53,0-96-43-96-96V27.7c0-53-43-96-96-96H177.9"/>
	<path class="st60" d="M1325.2,7317.4H830.7c-53,0-96-43-96-96v-858.6c0-53,43-96,96-96h104.4c53,0,96-45.6,96-98.6v-1114
		c0-53-43-96-96-96H487c-53,0-96-43-96-96V3806.4c0-53,43-96,96-96h150.8c53,0,96-43,96-96V2609c0-53,43-96,96-96h361.5
		c53,0,96-43,96-96V1205.6c0-53-43-96-96-96H884.1c-53,0-96-43-96-96V28.2c0-53-43-96-96-96H177.9"/>
	<path class="st61" d="M1325.2,7318H830.1c-53,0-96-43-96-96v-858.6c0-53,43-96,96-96h104.4c53,0,96-45.6,96-98.6v-1114
		c0-53-43-96-96-96H486.4c-53,0-96-43-96-96V3807c0-53,43-96,96-96h150.8c53,0,96-43,96-96V2609.6c0-53,43-96,96-96h361.5
		c53,0,96-43,96-96V1206.1c0-53-43-96-96-96H883.5c-53,0-96-43-96-96V28.8c0-53-43-96-96-96H177.9"/>
	<path class="st62" d="M1325.2,7318.6H829.5c-53,0-96-43-96-96v-858.6c0-53,43-96,96-96h104.4c53,0,96-45.6,96-98.6V5055.2
		c0-53-43-96-96-96H485.8c-53,0-96-43-96-96V3807.5c0-53,43-96,96-96h150.8c53,0,96-43,96-96V2610.2c0-53,43-96,96-96h361.5
		c53,0,96-43,96-96V1206.7c0-53-43-96-96-96H882.9c-53,0-96-43-96-96V29.4c0-53-43-96-96-96H177.9"/>
	<path class="st63" d="M1325.2,7319.1H828.9c-53,0-96-43-96-96v-858.6c0-53,43-96,96-96h104.4c53,0,96-45.5,96-98.6V5055.8
		c0-53-43-96-96-96H485.2c-53,0-96-43-96-96V3808.1c0-53,43-96,96-96H636c53,0,96-43,96-96V2610.7c0-53,43-96,96-96h361.5
		c53,0,96-43,96-96V1207.3c0-53-43-96-96-96H882.3c-53,0-96-43-96-96V29.9c0-53-43-96-96-96H177.9"/>
	<path class="st64" d="M1325.2,7319.7H828.3c-53,0-96-43-96-96V6365c0-53,43-96,96-96h104.4c53,0,96-45.5,96-98.6V5056.3
		c0-53-43-96-96-96H484.6c-53,0-96-43-96-96V3808.7c0-53,43-96,96-96h150.8c53,0,96-43,96-96V2611.3c0-53,43-96,96-96H1189
		c53,0,96-43,96-96V1207.8c0-53-43-96-96-96H881.7c-53,0-96-43-96-96V30.5c0-53-43-96-96-96H177.9"/>
	<path class="st65" d="M1325.2,7320.3H827.7c-53,0-96-43-96-96v-858.6c0-53,43-96,96-96h104.4c53,0,96-45.5,96-98.5V5056.9
		c0-53-43-96-96-96H484c-53,0-96-43-96-96V3809.3c0-53,43-96,96-96h150.8c53,0,96-43,96-96V2611.9c0-53,43-96,96-96h361.5
		c53,0,96-43,96-96V1208.4c0-53-43-96-96-96H881.1c-53,0-96-43-96-96V31.1c0-53-43-96-96-96H177.9"/>
	<path class="st66" d="M1325.2,7320.8H827.1c-53,0-96-43-96-96v-858.6c0-53,43-96,96-96h104.4c53,0,96-45.5,96-98.5V5057.5
		c0-53-43-96-96-96H483.4c-53,0-96-43-96-96V3809.8c0-53,43-96,96-96h150.8c53,0,96-43,96-96V2612.5c0-53,43-96,96-96h361.5
		c53,0,96-43,96-96V1209c0-53-43-96-96-96H880.5c-53,0-96-43-96-96V31.7c0-53-43-96-96-96H177.9"/>
	<path class="st67" d="M1325.2,7321.4H826.5c-53,0-96-43-96-96v-858.6c0-53,43-96,96-96H931c53,0,96-45.4,96-98.5V5058
		c0-53-43-96-96-96H482.9c-53,0-96-43-96-96V3810.4c0-53,43-96,96-96h150.8c53,0,96-43,96-96V2613c0-53,43-96,96-96h361.5
		c53,0,96-43,96-96V1209.6c0-53-43-96-96-96H879.9c-53,0-96-43-96-96V32.2c0-53-43-96-96-96h-510"/>
	<path class="st68" d="M1325.2,7322H825.9c-53,0-96-43-96-96v-858.6c0-53,43-96,96-96h104.4c53,0,96-45.4,96-98.5V5058.6
		c0-53-43-96-96-96H482.3c-53,0-96-43-96-96V3811c0-53,43-96,96-96h150.8c53,0,96-43,96-96V2613.6c0-53,43-96,96-96h361.5
		c53,0,96-43,96-96V1210.1c0-53-43-96-96-96H879.3c-53,0-96-43-96-96V32.8c0-53-43-96-96-96H177.9"/>
	<path class="st69" d="M1325.2,7322.5H825.4c-53,0-96-43-96-96v-858.6c0-53,43-96,96-96h104.4c53,0,96-45.4,96-98.4V5059.2
		c0-53-43-96-96-96H481.7c-53,0-96-43-96-96V3811.5c0-53,43-96,96-96h150.8c53,0,96-43,96-96V2614.2c0-53,43-96,96-96h361.5
		c53,0,96-43,96-96V1210.7c0-53-43-96-96-96H878.8c-53,0-96-43-96-96V33.4c0-53-43-96-96-96H177.9"/>
	<path class="st70" d="M1325.2,7323.1H824.8c-53,0-96-43-96-96v-858.6c0-53,43-96,96-96h104.4c53,0,96-45.4,96-98.4V5059.8
		c0-53-43-96-96-96H481.1c-53,0-96-43-96-96V3812.1c0-53,43-96,96-96h150.8c53,0,96-43,96-96V2614.7c0-53,43-96,96-96h361.5
		c53,0,96-43,96-96V1211.3c0-53-43-96-96-96H878.2c-53,0-96-43-96-96V33.9c0-53-43-96-96-96H177.9"/>
	<path class="st71" d="M1325.2,7323.7h-501c-53,0-96-43-96-96V6369c0-53,43-96,96-96h104.4c53,0,96-45.3,96-98.4V5060.3
		c0-53-43-96-96-96H480.5c-53,0-96-43-96-96V3812.7c0-53,43-96,96-96h150.8c53,0,96-43,96-96V2615.3c0-53,43-96,96-96h361.5
		c53,0,96-43,96-96V1211.8c0-53-43-96-96-96H877.6c-53,0-96-43-96-96V34.5c0-53-43-96-96-96H177.9"/>
	<path class="st72" d="M1325.2,7324.2H823.6c-53,0-96-43-96-96v-858.6c0-53,43-96,96-96H928c53,0,96-45.3,96-98.4V5060.9
		c0-53-43-96-96-96H479.9c-53,0-96-43-96-96V3813.2c0-53,43-96,96-96h150.8c53,0,96-43,96-96V2615.9c0-53,43-96,96-96h361.5
		c53,0,96-43,96-96V1212.4c0-53-43-96-96-96H877c-53,0-96-43-96-96V35.1c0-53-43-96-96-96h-507"/>
	<path class="st73" d="M1325.2,7324.8H823c-53,0-96-43-96-96v-858.6c0-53,43-96,96-96h104.4c53,0,96-45.3,96-98.3V5061.5
		c0-53-43-96-96-96H479.3c-53,0-96-43-96-96V3813.8c0-53,43-96,96-96h150.8c53,0,96-43,96-96V2616.4c0-53,43-96,96-96h361.5
		c53,0,96-43,96-96V1213c0-53-43-96-96-96H876.4c-53,0-96-43-96-96V35.6c0-53-43-96-96-96H177.9"/>
	<path class="st74" d="M1325.2,7325.4H822.4c-53,0-96-43-96-96v-858.6c0-53,43-96,96-96h104.4c53,0,96-45.3,96-98.3V5062
		c0-53-43-96-96-96H478.7c-53,0-96-43-96-96V3814.4c0-53,43-96,96-96h150.8c53,0,96-43,96-96V2617c0-53,43-96,96-96h361.5
		c53,0,96-43,96-96V1213.5c0-53-43-96-96-96H875.8c-53,0-96-43-96-96V36.2c0-53-43-96-96-96H177.9"/>
	<path class="st75" d="M1325.2,7326H821.8c-53,0-96-43-96-96v-858.6c0-53,43-96,96-96h104.4c53,0,96-45.2,96-98.3V5062.6
		c0-53-43-96-96-96H478.1c-53,0-96-43-96-96V3815c0-53,43-96,96-96H629c53,0,96-43,96-96V2617.6c0-53,43-96,96-96h361.5
		c53,0,96-43,96-96V1214.1c0-53-43-96-96-96H875.2c-53,0-96-43-96-96V36.8c0-53-43-96-96-96H177.9"/>
	<path class="st76" d="M1325.2,7326.5h-504c-53,0-96-43-96-96v-858.6c0-53,43-96,96-96h104.4c53,0,96-45.2,96-98.3V5063.2
		c0-53-43-96-96-96H477.6c-53,0-96-43-96-96V3815.5c0-53,43-96,96-96h150.8c53,0,96-43,96-96V2618.2c0-53,43-96,96-96H1182
		c53,0,96-43,96-96V1214.7c0-53-43-96-96-96H874.6c-53,0-96-43-96-96V37.4c0-53-43-96-96-96H177.9"/>
	<path class="st77" d="M1325.2,7327.1H820.6c-53,0-96-43-96-96v-858.6c0-53,43-96,96-96h104.4c53,0,96-45.2,96-98.2V5063.7
		c0-53-43-96-96-96H477c-53,0-96-43-96-96V3816.1c0-53,43-96,96-96h150.8c53,0,96-43,96-96V2618.7c0-53,43-96,96-96h361.5
		c53,0,96-43,96-96V1215.3c0-53-43-96-96-96H874c-53,0-96-43-96-96V37.9c0-53-43-96-96-96H177.9"/>
	<path class="st78" d="M1325.2,7327.7H820.1c-53,0-96-43-96-96V6373c0-53,43-96,96-96h104.4c53,0,96-45.2,96-98.2V5064.3
		c0-53-43-96-96-96H476.4c-53,0-96-43-96-96V3816.7c0-53,43-96,96-96h150.8c53,0,96-43,96-96V2619.3c0-53,43-96,96-96h361.5
		c53,0,96-43,96-96V1215.8c0-53-43-96-96-96H873.4c-53,0-96-43-96-96V38.5c0-53-43-96-96-96H177.9"/>
	<path class="st79" d="M1325.2,7328.2H819.5c-53,0-96-43-96-96v-858.6c0-53,43-96,96-96h104.4c53,0,96-45.2,96-98.2V5064.9
		c0-53-43-96-96-96H475.8c-53,0-96-43-96-96V3817.2c0-53,43-96,96-96h150.8c53,0,96-43,96-96V2619.9c0-53,43-96,96-96h361.5
		c53,0,96-43,96-96V1216.4c0-53-43-96-96-96H872.9c-53,0-96-43-96-96V39.1c0-53-43-96-96-96H177.9"/>
	<path class="st80" d="M1325.2,7328.8H818.9c-53,0-96-43-96-96v-858.6c0-53,43-96,96-96h104.4c53,0,96-45.1,96-98.2V5065.5
		c0-53-43-96-96-96H475.2c-53,0-96-43-96-96V3817.8c0-53,43-96,96-96H626c53,0,96-43,96-96V2620.4c0-53,43-96,96-96h361.5
		c53,0,96-43,96-96V1217c0-53-43-96-96-96H872.3c-53,0-96-43-96-96V39.6c0-53-43-96-96-96H177.9"/>
	<path class="st81" d="M1325.2,7329.4H818.3c-53,0-96-43-96-96v-858.6c0-53,43-96,96-96h104.4c53,0,96-45.1,96-98.1V5066
		c0-53-43-96-96-96H474.6c-53,0-96-43-96-96V3818.4c0-53,43-96,96-96h150.8c53,0,96-43,96-96V2621c0-53,43-96,96-96H1179
		c53,0,96-43,96-96V1217.5c0-53-43-96-96-96H871.7c-53,0-96-43-96-96V40.2c0-53-43-96-96-96H177.9"/>
	<path class="st82" d="M1325.2,7329.9H817.7c-53,0-96-43-96-96v-858.6c0-53,43-96,96-96h104.4c53,0,96-45.1,96-98.1V5066.6
		c0-53-43-96-96-96H474c-53,0-96-43-96-96V3818.9c0-53,43-96,96-96h150.8c53,0,96-43,96-96V2621.6c0-53,43-96,96-96h361.5
		c53,0,96-43,96-96V1218.1c0-53-43-96-96-96H871.1c-53,0-96-43-96-96V40.8c0-53-43-96-96-96H177.9"/>
	<path class="st83" d="M1325.2,7330.5H817.1c-53,0-96-43-96-96v-858.6c0-53,43-96,96-96h104.4c53,0,96-45.1,96-98.1V5067.2
		c0-53-43-96-96-96H473.4c-53,0-96-43-96-96V3819.5c0-53,43-96,96-96h150.8c53,0,96-43,96-96V2622.1c0-53,43-96,96-96h361.5
		c53,0,96-43,96-96V1218.7c0-53-43-96-96-96H870.5c-53,0-96-43-96-96V41.3c0-53-43-96-96-96H177.9"/>
	<path class="st84" d="M1325.2,7331.1H816.5c-53,0-96-43-96-96v-858.6c0-53,43-96,96-96h104.4c53,0,96-45,96-98.1V5067.7
		c0-53-43-96-96-96H472.8c-53,0-96-43-96-96V3820.1c0-53,43-96,96-96h150.8c53,0,96-43,96-96V2622.7c0-53,43-96,96-96h361.5
		c53,0,96-43,96-96V1219.2c0-53-43-96-96-96H869.9c-53,0-96-43-96-96V41.9c0-53-43-96-96-96h-500"/>
	<path class="st85" d="M1325.2,7331.7H815.9c-53,0-96-43-96-96V6377c0-53,43-96,96-96h104.4c53,0,96-45,96-98.1V5068.3
		c0-53-43-96-96-96H472.3c-53,0-96-43-96-96V3820.7c0-53,43-96,96-96h150.8c53,0,96-43,96-96V2623.3c0-53,43-96,96-96h361.5
		c53,0,96-43,96-96V1219.8c0-53-43-96-96-96H869.3c-53,0-96-43-96-96V42.5c0-53-43-96-96-96H177.9"/>
	<path class="st86" d="M1325.2,7332.2H815.3c-53,0-96-43-96-96v-858.6c0-53,43-96,96-96h104.4c53,0,96-45,96-98V5068.9
		c0-53-43-96-96-96H471.7c-53,0-96-43-96-96V3821.2c0-53,43-96,96-96h150.8c53,0,96-43,96-96V2623.9c0-53,43-96,96-96h361.5
		c53,0,96-43,96-96V1220.4c0-53-43-96-96-96H868.7c-53,0-96-43-96-96V43.1c0-53-43-96-96-96H177.9"/>
	<path class="st87" d="M1325.2,7332.8H814.8c-53,0-96-43-96-96v-858.6c0-53,43-96,96-96h104.4c53,0,96-45,96-98V5069.4
		c0-53-43-96-96-96H471.1c-53,0-96-43-96-96V3821.8c0-53,43-96,96-96h150.8c53,0,96-43,96-96V2624.4c0-53,43-96,96-96h361.5
		c53,0,96-43,96-96V1221c0-53-43-96-96-96H868.1c-53,0-96-43-96-96V43.6c0-53-43-96-96-96H177.9"/>
	<path class="st88" d="M1325.2,7333.4h-511c-53,0-96-43-96-96v-858.6c0-53,43-96,96-96h104.4c53,0,96-44.9,96-98V5070
		c0-53-43-96-96-96H470.5c-53,0-96-43-96-96V3822.4c0-53,43-96,96-96h150.8c53,0,96-43,96-96V2625c0-53,43-96,96-96h361.5
		c53,0,96-43,96-96V1221.5c0-53-43-96-96-96H867.6c-53,0-96-43-96-96V44.2c0-53-43-96-96-96H177.9"/>
	<path class="st89" d="M1325.2,7333.9H813.6c-53,0-96-43-96-96v-858.6c0-53,43-96,96-96H918c53,0,96-44.9,96-98V5070.6
		c0-53-43-96-96-96H469.9c-53,0-96-43-96-96V3822.9c0-53,43-96,96-96h150.8c53,0,96-43,96-96V2625.6c0-53,43-96,96-96h361.5
		c53,0,96-43,96-96V1222.1c0-53-43-96-96-96H867c-53,0-96-43-96-96V44.8c0-53-43-96-96-96h-497"/>
	<path class="st90" d="M1325.2,7334.5H813c-53,0-96-43-96-96v-858.6c0-53,43-96,96-96h104.4c53,0,96-44.9,96-97.9V5071.2
		c0-53-43-96-96-96H469.3c-53,0-96-43-96-96V3823.5c0-53,43-96,96-96h150.8c53,0,96-43,96-96V2626.1c0-53,43-96,96-96h361.5
		c53,0,96-43,96-96V1222.7c0-53-43-96-96-96H866.4c-53,0-96-43-96-96V45.3c0-53-43-96-96-96H177.9"/>
	<path class="st91" d="M1325.2,7335.1H812.4c-53,0-96-43-96-96v-858.6c0-53,43-96,96-96h104.4c53,0,96-44.9,96-97.9V5071.7
		c0-53-43-96-96-96H468.7c-53,0-96-43-96-96V3824.1c0-53,43-96,96-96h150.8c53,0,96-43,96-96V2626.7c0-53,43-96,96-96h361.5
		c53,0,96-43,96-96V1223.2c0-53-43-96-96-96H865.8c-53,0-96-43-96-96V45.9c0-53-43-96-96-96H177.9"/>
	<path class="st92" d="M1325.2,7335.6H811.8c-53,0-96-43-96-96V6381c0-53,43-96,96-96h104.4c53,0,96-44.8,96-97.9V5072.3
		c0-53-43-96-96-96H468.1c-53,0-96-43-96-96V3824.6c0-53,43-96,96-96H619c53,0,96-43,96-96V2627.3c0-53,43-96,96-96h361.5
		c53,0,96-43,96-96V1223.8c0-53-43-96-96-96H865.2c-53,0-96-43-96-96V46.5c0-53-43-96-96-96H177.9"/>
	<path class="st93" d="M1325.2,7336.2h-514c-53,0-96-43-96-96v-858.6c0-53,43-96,96-96h104.4c53,0,96-44.8,96-97.9V5072.9
		c0-53-43-96-96-96H467.5c-53,0-96-43-96-96V3825.2c0-53,43-96,96-96h150.8c53,0,96-43,96-96V2627.8c0-53,43-96,96-96H1172
		c53,0,96-43,96-96V1224.4c0-53-43-96-96-96H864.6c-53,0-96-43-96-96V47c0-53-43-96-96-96H177.9"/>
	<path class="st94" d="M1325.2,7336.8H810.6c-53,0-96-43-96-96v-858.6c0-53,43-96,96-96h104.4c53,0,96-44.8,96-97.8V5073.4
		c0-53-43-96-96-96H467c-53,0-96-43-96-96V3825.8c0-53,43-96,96-96h150.8c53,0,96-43,96-96V2628.4c0-53,43-96,96-96h361.5
		c53,0,96-43,96-96V1224.9c0-53-43-96-96-96H864c-53,0-96-43-96-96V47.6c0-53-43-96-96-96H177.9"/>
	<path class="st95" d="M1325.2,7337.4H810c-53,0-96-43-96-96v-858.6c0-53,43-96,96-96h104.4c53,0,96-44.8,96-97.8V5074
		c0-53-43-96-96-96H466.4c-53,0-96-43-96-96V3826.4c0-53,43-96,96-96h150.8c53,0,96-43,96-96V2629c0-53,43-96,96-96h361.5
		c53,0,96-43,96-96V1225.5c0-53-43-96-96-96H863.4c-53,0-96-43-96-96V48.2c0-53-43-96-96-96H177.9"/>
	<path class="st96" d="M1325.2,7337.9H809.5c-53,0-96-43-96-96v-858.6c0-53,43-96,96-96h104.4c53,0,96-44.8,96-97.8V5074.6
		c0-53-43-96-96-96H465.8c-53,0-96-43-96-96V3826.9c0-53,43-96,96-96h150.8c53,0,96-43,96-96V2629.5c0-53,43-96,96-96h361.5
		c53,0,96-43,96-96V1226.1c0-53-43-96-96-96H862.8c-53,0-96-43-96-96V48.8c0-53-43-96-96-96H177.9"/>
	<path class="st97" d="M1325.2,7338.5H808.9c-53,0-96-43-96-96v-858.6c0-53,43-96,96-96h104.4c53,0,96-44.7,96-97.8V5075.1
		c0-53-43-96-96-96H465.2c-53,0-96-43-96-96V3827.5c0-53,43-96,96-96H616c53,0,96-43,96-96V2630.1c0-53,43-96,96-96h361.5
		c53,0,96-43,96-96V1226.7c0-53-43-96-96-96H862.3c-53,0-96-43-96-96V49.3c0-53-43-96-96-96H177.9"/>
	<path class="st98" d="M1325.2,7339.1H808.3c-53,0-96-43-96-96v-858.6c0-53,43-96,96-96h104.4c53,0,96-44.7,96-97.7V5075.7
		c0-53-43-96-96-96H464.6c-53,0-96-43-96-96V3828.1c0-53,43-96,96-96h150.8c53,0,96-43,96-96V2630.7c0-53,43-96,96-96H1169
		c53,0,96-43,96-96V1227.2c0-53-43-96-96-96H861.7c-53,0-96-43-96-96V49.9c0-53-43-96-96-96H177.9"/>
	<path class="st99" d="M1325.2,7339.6H807.7c-53,0-96-43-96-96V6385c0-53,43-96,96-96h104.4c53,0,96-44.7,96-97.7V5076.3
		c0-53-43-96-96-96H464c-53,0-96-43-96-96V3828.6c0-53,43-96,96-96h150.8c53,0,96-43,96-96V2631.3c0-53,43-96,96-96h361.5
		c53,0,96-43,96-96V1227.8c0-53-43-96-96-96H861.1c-53,0-96-43-96-96V50.5c0-53-43-96-96-96H177.9"/>
	<path class="st100" d="M1325.2,7340.2H807.1c-53,0-96-43-96-96v-858.6c0-53,43-96,96-96h104.4c53,0,96-44.7,96-97.7v-1115
		c0-53-43-96-96-96H463.4c-53,0-96-43-96-96V3829.2c0-53,43-96,96-96h150.8c53,0,96-43,96-96V2631.8c0-53,43-96,96-96h361.5
		c53,0,96-43,96-96V1228.4c0-53-43-96-96-96H860.5c-53,0-96-43-96-96V51c0-53-43-96-96-96H177.9"/>
	<path class="st101" d="M1325.2,7340.8H806.5c-53,0-96-43-96-96v-858.6c0-53,43-96,96-96h104.4c53,0,96-44.6,96-97.7v-1115
		c0-53-43-96-96-96H462.8c-53,0-96-43-96-96V3829.8c0-53,43-96,96-96h150.8c53,0,96-43,96-96V2632.4c0-53,43-96,96-96h361.5
		c53,0,96-43,96-96V1228.9c0-53-43-96-96-96H859.9c-53,0-96-43-96-96V51.6c0-53-43-96-96-96H177.9"/>
	<path class="st102" d="M1325.2,7341.3H805.9c-53,0-96-43-96-96v-858.6c0-53,43-96,96-96h104.4c53,0,96-44.6,96-97.7V5078
		c0-53-43-96-96-96H462.2c-53,0-96-43-96-96V3830.3c0-53,43-96,96-96h150.8c53,0,96-43,96-96V2633c0-53,43-96,96-96h361.5
		c53,0,96-43,96-96V1229.5c0-53-43-96-96-96H859.3c-53,0-96-43-96-96V52.2c0-53-43-96-96-96H177.9"/>
	<path class="st103" d="M1325.2,7341.9H805.3c-53,0-96-43-96-96v-858.6c0-53,43-96,96-96h104.4c53,0,96-44.6,96-97.6v-1115
		c0-53-43-96-96-96H461.7c-53,0-96-43-96-96V3830.9c0-53,43-96,96-96h150.8c53,0,96-43,96-96V2633.5c0-53,43-96,96-96h361.5
		c53,0,96-43,96-96V1230.1c0-53-43-96-96-96H858.7c-53,0-96-43-96-96V52.7c0-53-43-96-96-96H177.9"/>
	<path class="st104" d="M1325.2,7342.5H804.7c-53,0-96-43-96-96v-858.6c0-53,43-96,96-96h104.4c53,0,96-44.6,96-97.6V5079.1
		c0-53-43-96-96-96H461.1c-53,0-96-43-96-96V3831.5c0-53,43-96,96-96h150.8c53,0,96-43,96-96V2634.1c0-53,43-96,96-96h361.5
		c53,0,96-43,96-96V1230.6c0-53-43-96-96-96H858.1c-53,0-96-43-96-96V53.3c0-53-43-96-96-96H177.9"/>
	<path class="st105" d="M1325.2,7343.1h-521c-53,0-96-43-96-96v-858.6c0-53,43-96,96-96h104.4c53,0,96-44.5,96-97.6V5079.7
		c0-53-43-96-96-96H460.5c-53,0-96-43-96-96V3832.1c0-53,43-96,96-96h150.8c53,0,96-43,96-96V2634.7c0-53,43-96,96-96h361.5
		c53,0,96-43,96-96V1231.2c0-53-43-96-96-96H857.5c-53,0-96-43-96-96V53.9c0-53-43-96-96-96H177.9"/>
	<path class="st106" d="M1325.2,7343.6H803.6c-53,0-96-43-96-96V6389c0-53,43-96,96-96H908c53,0,96-44.5,96-97.6V5080.3
		c0-53-43-96-96-96H459.9c-53,0-96-43-96-96V3832.6c0-53,43-96,96-96h150.8c53,0,96-43,96-96V2635.2c0-53,43-96,96-96h361.5
		c53,0,96-43,96-96V1231.8c0-53-43-96-96-96H857c-53,0-96-43-96-96V54.5c0-53-43-96-96-96h-487"/>
	<path class="st107" d="M1325.2,7344.2H803c-53,0-96-43-96-96v-858.6c0-53,43-96,96-96h104.4c53,0,96-44.5,96-97.5V5080.8
		c0-53-43-96-96-96H459.3c-53,0-96-43-96-96V3833.2c0-53,43-96,96-96h150.8c53,0,96-43,96-96V2635.8c0-53,43-96,96-96h361.5
		c53,0,96-43,96-96V1232.4c0-53-43-96-96-96H856.4c-53,0-96-43-96-96V55c0-53-43-96-96-96H177.9"/>
	<path class="st108" d="M1325.2,7344.8H802.4c-53,0-96-43-96-96v-858.6c0-53,43-96,96-96h104.4c53,0,96-44.5,96-97.5V5081.4
		c0-53-43-96-96-96H458.7c-53,0-96-43-96-96V3833.8c0-53,43-96,96-96h150.8c53,0,96-43,96-96V2636.4c0-53,43-96,96-96h361.5
		c53,0,96-43,96-96V1232.9c0-53-43-96-96-96H855.8c-53,0-96-43-96-96V55.6c0-53-43-96-96-96H177.9"/>
	<path class="st109" d="M1325.2,7345.3H801.8c-53,0-96-43-96-96v-858.6c0-53,43-96,96-96h104.4c53,0,96-44.4,96-97.5V5082
		c0-53-43-96-96-96H458.1c-53,0-96-43-96-96V3834.3c0-53,43-96,96-96H609c53,0,96-43,96-96V2637c0-53,43-96,96-96h361.5
		c53,0,96-43,96-96V1233.5c0-53-43-96-96-96H855.2c-53,0-96-43-96-96V56.2c0-53-43-96-96-96H177.9"/>
	<path class="st110" d="M1325.2,7345.9h-524c-53,0-96-43-96-96v-858.6c0-53,43-96,96-96h104.4c53,0,96-44.4,96-97.5V5082.6
		c0-53-43-96-96-96H457.5c-53,0-96-43-96-96V3834.9c0-53,43-96,96-96h150.8c53,0,96-43,96-96V2637.5c0-53,43-96,96-96h361.5
		c53,0,96-43,96-96V1234.1c0-53-43-96-96-96H854.6c-53,0-96-43-96-96V56.7c0-53-43-96-96-96H177.9"/>
	<path class="st111" d="M1325.2,7346.5H800.6c-53,0-96-43-96-96v-858.6c0-53,43-96,96-96H905c53,0,96-44.4,96-97.4V5083.1
		c0-53-43-96-96-96H456.9c-53,0-96-43-96-96V3835.5c0-53,43-96,96-96h150.8c53,0,96-43,96-96V2638.1c0-53,43-96,96-96h361.5
		c53,0,96-43,96-96V1234.6c0-53-43-96-96-96H854c-53,0-96-43-96-96V57.3c0-53-43-96-96-96H177.9"/>
	<path class="st112" d="M1325.2,7347H800c-53,0-96-43-96-96v-858.6c0-53,43-96,96-96h104.4c53,0,96-44.4,96-97.4V5083.7
		c0-53-43-96-96-96H456.4c-53,0-96-43-96-96V3836c0-53,43-96,96-96h150.8c53,0,96-43,96-96V2638.7c0-53,43-96,96-96h361.5
		c53,0,96-43,96-96V1235.2c0-53-43-96-96-96H853.4c-53,0-96-43-96-96V57.9c0-53-43-96-96-96H177.9"/>
	<path class="st113" d="M1325.2,7347.6H799.4c-53,0-96-43-96-96V6393c0-53,43-96,96-96h104.4c53,0,96-44.3,96-97.4V5084.3
		c0-53-43-96-96-96H455.8c-53,0-96-43-96-96V3836.6c0-53,43-96,96-96h150.8c53,0,96-43,96-96V2639.2c0-53,43-96,96-96h361.5
		c53,0,96-43,96-96V1235.8c0-53-43-96-96-96H852.8c-53,0-96-43-96-96V58.4c0-53-43-96-96-96H177.9"/>
	<path class="st114" d="M1325.2,7348.2H798.9c-53,0-96-43-96-96v-858.6c0-53,43-96,96-96h104.4c53,0,96-44.3,96-97.4V5084.8
		c0-53-43-96-96-96H455.2c-53,0-96-43-96-96V3837.2c0-53,43-96,96-96H606c53,0,96-43,96-96V2639.8c0-53,43-96,96-96h361.5
		c53,0,96-43,96-96V1236.3c0-53-43-96-96-96H852.2c-53,0-96-43-96-96V59c0-53-43-96-96-96H177.9"/>
	<path class="st115" d="M1325.2,7348.8H798.3c-53,0-96-43-96-96v-858.6c0-53,43-96,96-96h104.4c53,0,96-44.3,96-97.3V5085.4
		c0-53-43-96-96-96H454.6c-53,0-96-43-96-96V3837.8c0-53,43-96,96-96h150.8c53,0,96-43,96-96V2640.4c0-53,43-96,96-96H1159
		c53,0,96-43,96-96V1236.9c0-53-43-96-96-96H851.7c-53,0-96-43-96-96V59.6c0-53-43-96-96-96H177.9"/>
	<path class="st116" d="M1325.2,7349.3H797.7c-53,0-96-43-96-96v-858.6c0-53,43-96,96-96h104.4c53,0,96-44.3,96-97.3V5086
		c0-53-43-96-96-96H454c-53,0-96-43-96-96V3838.3c0-53,43-96,96-96h150.8c53,0,96-43,96-96V2640.9c0-53,43-96,96-96h361.5
		c53,0,96-43,96-96V1237.5c0-53-43-96-96-96H851.1c-53,0-96-43-96-96V60.2c0-53-43-96-96-96H177.9"/>
	<path class="st117" d="M1325.2,7349.9H797.1c-53,0-96-43-96-96v-858.6c0-53,43-96,96-96h104.4c53,0,96-44.3,96-97.3V5086.5
		c0-53-43-96-96-96H453.4c-53,0-96-43-96-96V3838.9c0-53,43-96,96-96h150.8c53,0,96-43,96-96V2641.5c0-53,43-96,96-96h361.5
		c53,0,96-43,96-96V1238.1c0-53-43-96-96-96H850.5c-53,0-96-43-96-96V60.7c0-53-43-96-96-96H177.9"/>
	<path class="st118" d="M1325.2,7350.5H796.5c-53,0-96-43-96-96v-858.6c0-53,43-96,96-96h104.4c53,0,96-44.2,96-97.3V5087.1
		c0-53-43-96-96-96H452.8c-53,0-96-43-96-96V3839.5c0-53,43-96,96-96h150.8c53,0,96-43,96-96V2642.1c0-53,43-96,96-96h361.5
		c53,0,96-43,96-96V1238.6c0-53-43-96-96-96H849.9c-53,0-96-43-96-96V61.3c0-53-43-96-96-96H177.9"/>
	<path class="st119" d="M1325.2,7351H795.9c-53,0-96-43-96-96v-858.6c0-53,43-96,96-96h104.4c53,0,96-44.2,96-97.2V5087.7
		c0-53-43-96-96-96H452.2c-53,0-96-43-96-96V3840c0-53,43-96,96-96h150.8c53,0,96-43,96-96V2642.7c0-53,43-96,96-96h361.5
		c53,0,96-43,96-96V1239.2c0-53-43-96-96-96H849.3c-53,0-96-43-96-96V61.9c0-53-43-96-96-96H177.9"/>
	<path class="st120" d="M1325.2,7351.6H795.3c-53,0-96-43-96-96V6397c0-53,43-96,96-96h104.4c53,0,96-44.2,96-97.2V5088.3
		c0-53-43-96-96-96H451.6c-53,0-96-43-96-96V3840.6c0-53,43-96,96-96h150.8c53,0,96-43,96-96V2643.2c0-53,43-96,96-96h361.5
		c53,0,96-43,96-96V1239.8c0-53-43-96-96-96H848.7c-53,0-96-43-96-96V62.4c0-53-43-96-96-96H177.9"/>
	<path class="st121" d="M1325.2,7352.2H794.7c-53,0-96-43-96-96v-858.6c0-53,43-96,96-96h104.4c53,0,96-44.2,96-97.2V5088.8
		c0-53-43-96-96-96H451.1c-53,0-96-43-96-96V3841.2c0-53,43-96,96-96h150.8c53,0,96-43,96-96V2643.8c0-53,43-96,96-96h361.5
		c53,0,96-43,96-96V1240.3c0-53-43-96-96-96H848.1c-53,0-96-43-96-96V63c0-53-43-96-96-96H177.9"/>
	<path class="st122" d="M1325.2,7352.7H794.1c-53,0-96-43-96-96v-858.6c0-53,43-96,96-96h104.4c53,0,96-44.1,96-97.2V5089.4
		c0-53-43-96-96-96H450.5c-53,0-96-43-96-96V3841.7c0-53,43-96,96-96h150.8c53,0,96-43,96-96V2644.4c0-53,43-96,96-96h361.5
		c53,0,96-43,96-96V1240.9c0-53-43-96-96-96H847.5c-53,0-96-43-96-96V63.6c0-53-43-96-96-96H177.9"/>
	<path class="st123" d="M1325.2,7353.3H793.6c-53,0-96-43-96-96v-858.6c0-53,43-96,96-96H898c53,0,96-44.1,96-97.2V5090
		c0-53-43-96-96-96H449.9c-53,0-96-43-96-96V3842.3c0-53,43-96,96-96h150.8c53,0,96-43,96-96V2644.9c0-53,43-96,96-96h361.5
		c53,0,96-43,96-96V1241.5c0-53-43-96-96-96H846.9c-53,0-96-43-96-96V64.1c0-53-43-96-96-96h-477"/>
	<path class="st124" d="M1325.2,7353.9H793c-53,0-96-43-96-96v-858.6c0-53,43-96,96-96h104.4c53,0,96-44.1,96-97.1V5090.5
		c0-53-43-96-96-96H449.3c-53,0-96-43-96-96V3842.9c0-53,43-96,96-96h150.8c53,0,96-43,96-96V2645.5c0-53,43-96,96-96h361.5
		c53,0,96-43,96-96V1242c0-53-43-96-96-96H846.4c-53,0-96-43-96-96V64.7c0-53-43-96-96-96H177.9"/>
	<path class="st125" d="M1325.2,7354.5H792.4c-53,0-96-43-96-96v-858.6c0-53,43-96,96-96h104.4c53,0,96-44.1,96-97.1V5091.1
		c0-53-43-96-96-96H448.7c-53,0-96-43-96-96V3843.5c0-53,43-96,96-96h150.8c53,0,96-43,96-96V2646.1c0-53,43-96,96-96h361.5
		c53,0,96-43,96-96V1242.6c0-53-43-96-96-96H845.8c-53,0-96-43-96-96V65.3c0-53-43-96-96-96H177.9"/>
	<path class="st126" d="M1325.2,7355H791.8c-53,0-96-43-96-96v-858.6c0-53,43-96,96-96h104.4c53,0,96-44,96-97.1V5091.7
		c0-53-43-96-96-96H448.1c-53,0-96-43-96-96V3844c0-53,43-96,96-96h150.8c53,0,96-43,96-96V2646.6c0-53,43-96,96-96h361.5
		c53,0,96-43,96-96V1243.2c0-53-43-96-96-96H845.2c-53,0-96-43-96-96V65.9c0-53-43-96-96-96H177.9"/>
	<path class="st127" d="M1325.2,7355.6h-534c-53,0-96-43-96-96V6401c0-53,43-96,96-96h104.4c53,0,96-44,96-97.1V5092.2
		c0-53-43-96-96-96H447.5c-53,0-96-43-96-96V3844.6c0-53,43-96,96-96h150.8c53,0,96-43,96-96V2647.2c0-53,43-96,96-96h361.5
		c53,0,96-43,96-96V1243.8c0-53-43-96-96-96H844.6c-53,0-96-43-96-96V66.4c0-53-43-96-96-96H177.9"/>
	<path class="st128" d="M1325.2,7356.2H790.6c-53,0-96-43-96-96v-858.6c0-53,43-96,96-96H895c53,0,96-44,96-97V5092.8
		c0-53-43-96-96-96H446.9c-53,0-96-43-96-96V3845.2c0-53,43-96,96-96h150.8c53,0,96-43,96-96V2647.8c0-53,43-96,96-96h361.5
		c53,0,96-43,96-96V1244.3c0-53-43-96-96-96H844c-53,0-96-43-96-96V67c0-53-43-96-96-96h-474"/>
	<path class="st129" d="M1325.2,7356.7H790c-53,0-96-43-96-96v-858.6c0-53,43-96,96-96h104.4c53,0,96-44,96-97V5093.4
		c0-53-43-96-96-96H446.3c-53,0-96-43-96-96V3845.7c0-53,43-96,96-96h150.8c53,0,96-43,96-96V2648.4c0-53,43-96,96-96h361.5
		c53,0,96-43,96-96V1244.9c0-53-43-96-96-96H843.4c-53,0-96-43-96-96V67.6c0-53-43-96-96-96H177.9"/>
	<path class="st130" d="M1325.2,7357.3H789.4c-53,0-96-43-96-96v-858.6c0-53,43-96,96-96h104.4c53,0,96-43.9,96-97V5094
		c0-53-43-96-96-96H445.8c-53,0-96-43-96-96V3846.3c0-53,43-96,96-96h150.8c53,0,96-43,96-96V2648.9c0-53,43-96,96-96h361.5
		c53,0,96-43,96-96V1245.5c0-53-43-96-96-96H842.8c-53,0-96-43-96-96V68.1c0-53-43-96-96-96H177.9"/>
	<path class="st131" d="M1325.2,7357.9H788.8c-53,0-96-43-96-96v-858.6c0-53,43-96,96-96h104.4c53,0,96-43.9,96-97V5094.5
		c0-53-43-96-96-96H445.2c-53,0-96-43-96-96V3846.9c0-53,43-96,96-96H596c53,0,96-43,96-96V2649.5c0-53,43-96,96-96h361.5
		c53,0,96-43,96-96V1246c0-53-43-96-96-96H842.2c-53,0-96-43-96-96V68.7c0-53-43-96-96-96H177.9"/>
	<path class="st132" d="M1325.2,7358.4H788.3c-53,0-96-43-96-96v-858.6c0-53,43-96,96-96h104.4c53,0,96-43.9,96-96.9V5095.1
		c0-53-43-96-96-96H444.6c-53,0-96-43-96-96V3847.4c0-53,43-96,96-96h150.8c53,0,96-43,96-96V2650.1c0-53,43-96,96-96H1149
		c53,0,96-43,96-96V1246.6c0-53-43-96-96-96H841.6c-53,0-96-43-96-96V69.3c0-53-43-96-96-96H177.9"/>
	<path class="st133" d="M1325.2,7359H787.7c-53,0-96-43-96-96v-858.6c0-53,43-96,96-96h104.4c53,0,96-43.9,96-96.9V5095.7
		c0-53-43-96-96-96H444c-53,0-96-43-96-96V3848c0-53,43-96,96-96h150.8c53,0,96-43,96-96V2650.6c0-53,43-96,96-96h361.5
		c53,0,96-43,96-96V1247.2c0-53-43-96-96-96H841.1c-53,0-96-43-96-96V69.8c0-53-43-96-96-96H177.9"/>
	<path class="st134" d="M1325.2,7359.6H787.1c-53,0-96-43-96-96v-858.6c0-53,43-96,96-96h104.4c53,0,96-43.9,96-96.9V5096.2
		c0-53-43-96-96-96H443.4c-53,0-96-43-96-96V3848.6c0-53,43-96,96-96h150.8c53,0,96-43,96-96V2651.2c0-53,43-96,96-96h361.5
		c53,0,96-43,96-96V1247.7c0-53-43-96-96-96H840.5c-53,0-96-43-96-96V70.4c0-53-43-96-96-96H177.9"/>
	<path class="st135" d="M1325.2,7360.2H786.5c-53,0-96-43-96-96v-858.6c0-53,43-96,96-96h104.4c53,0,96-43.8,96-96.9V5096.8
		c0-53-43-96-96-96H442.8c-53,0-96-43-96-96V3849.2c0-53,43-96,96-96h150.8c53,0,96-43,96-96V2651.8c0-53,43-96,96-96h361.5
		c53,0,96-43,96-96V1248.3c0-53-43-96-96-96H839.9c-53,0-96-43-96-96V71c0-53-43-96-96-96H177.9"/>
	<path class="st136" d="M1325.2,7360.7H785.9c-53,0-96-43-96-96v-858.6c0-53,43-96,96-96h104.4c53,0,96-43.8,96-96.8V5097.4
		c0-53-43-96-96-96H442.2c-53,0-96-43-96-96V3849.7c0-53,43-96,96-96h150.8c53,0,96-43,96-96V2652.3c0-53,43-96,96-96h361.5
		c53,0,96-43,96-96V1248.9c0-53-43-96-96-96H839.3c-53,0-96-43-96-96V71.6c0-53-43-96-96-96H177.9"/>
	<path class="st137" d="M1325.2,7361.3H785.3c-53,0-96-43-96-96v-858.6c0-53,43-96,96-96h104.4c53,0,96-43.8,96-96.8V5097.9
		c0-53-43-96-96-96H441.6c-53,0-96-43-96-96V3850.3c0-53,43-96,96-96h150.8c53,0,96-43,96-96V2652.9c0-53,43-96,96-96H1146
		c53,0,96-43,96-96V1249.5c0-53-43-96-96-96H838.7c-53,0-96-43-96-96V72.1c0-53-43-96-96-96H177.9"/>
	<path class="st138" d="M1325.2,7361.9H784.7c-53,0-96-43-96-96v-858.6c0-53,43-96,96-96h104.4c53,0,96-43.8,96-96.8V5098.5
		c0-53-43-96-96-96H441c-53,0-96-43-96-96V3850.9c0-53,43-96,96-96h150.8c53,0,96-43,96-96V2653.5c0-53,43-96,96-96h361.5
		c53,0,96-43,96-96V1250c0-53-43-96-96-96H838.1c-53,0-96-43-96-96V72.7c0-53-43-96-96-96H177.9"/>
	<path class="st139" d="M1325.2,7362.4H784.1c-53,0-96-43-96-96v-858.6c0-53,43-96,96-96h104.4c53,0,96-43.7,96-96.8V5099.1
		c0-53-43-96-96-96H440.5c-53,0-96-43-96-96V3851.4c0-53,43-96,96-96h150.8c53,0,96-43,96-96V2654.1c0-53,43-96,96-96h361.5
		c53,0,96-43,96-96V1250.6c0-53-43-96-96-96H837.5c-53,0-96-43-96-96V73.3c0-53-43-96-96-96H177.9"/>
	<path class="st140" d="M1325.2,7363H783.5c-53,0-96-43-96-96v-858.6c0-53,43-96,96-96H888c53,0,96-43.7,96-96.8V5099.7
		c0-53-43-96-96-96H439.9c-53,0-96-43-96-96V3852c0-53,43-96,96-96h150.8c53,0,96-43,96-96V2654.6c0-53,43-96,96-96h361.5
		c53,0,96-43,96-96V1251.2c0-53-43-96-96-96H836.9c-53,0-96-43-96-96V73.8c0-53-43-96-96-96h-467"/>
	<path class="st141" d="M1325.2,7363.6H783c-53,0-96-43-96-96v-858.6c0-53,43-96,96-96h104.4c53,0,96-43.7,96-96.7V5100.2
		c0-53-43-96-96-96H439.3c-53,0-96-43-96-96V3852.6c0-53,43-96,96-96h150.8c53,0,96-43,96-96V2655.2c0-53,43-96,96-96h361.5
		c53,0,96-43,96-96V1251.7c0-53-43-96-96-96H836.3c-53,0-96-43-96-96V74.4c0-53-43-96-96-96H177.9"/>
	<path class="st142" d="M1325.2,7364.1H782.4c-53,0-96-43-96-96v-858.6c0-53,43-96,96-96h104.4c53,0,96-43.7,96-96.7v-1116
		c0-53-43-96-96-96H438.7c-53,0-96-43-96-96V3853.1c0-53,43-96,96-96h150.8c53,0,96-43,96-96V2655.8c0-53,43-96,96-96h361.5
		c53,0,96-43,96-96V1252.3c0-53-43-96-96-96H835.8c-53,0-96-43-96-96V75c0-53-43-96-96-96H177.9"/>
	<path class="st143" d="M1325.2,7364.7H781.8c-53,0-96-43-96-96v-858.6c0-53,43-96,96-96h104.4c53,0,96-43.6,96-96.7v-1116
		c0-53-43-96-96-96H438.1c-53,0-96-43-96-96V3853.7c0-53,43-96,96-96h150.8c53,0,96-43,96-96V2656.3c0-53,43-96,96-96h361.5
		c53,0,96-43,96-96V1252.9c0-53-43-96-96-96H835.2c-53,0-96-43-96-96V75.5c0-53-43-96-96-96H177.9"/>
	<path class="st144" d="M1325.2,7365.3h-544c-53,0-96-43-96-96v-858.6c0-53,43-96,96-96h104.4c53,0,96-43.6,96-96.7v-1116
		c0-53-43-96-96-96H437.5c-53,0-96-43-96-96V3854.3c0-53,43-96,96-96h150.8c53,0,96-43,96-96V2656.9c0-53,43-96,96-96h361.5
		c53,0,96-43,96-96V1253.4c0-53-43-96-96-96H834.6c-53,0-96-43-96-96V76.1c0-53-43-96-96-96H177.9"/>
	<path class="st145" d="M1325.2,7365.9H780.6c-53,0-96-43-96-96v-858.6c0-53,43-96,96-96H885c53,0,96-43.6,96-96.6v-1116
		c0-53-43-96-96-96H436.9c-53,0-96-43-96-96V3854.9c0-53,43-96,96-96h150.8c53,0,96-43,96-96V2657.5c0-53,43-96,96-96h361.5
		c53,0,96-43,96-96V1254c0-53-43-96-96-96H834c-53,0-96-43-96-96V76.7c0-53-43-96-96-96h-464"/>
	<path class="st146" d="M1325.2,7366.4H780c-53,0-96-43-96-96v-858.6c0-53,43-96,96-96h104.4c53,0,96-43.6,96-96.6V5103.1
		c0-53-43-96-96-96H436.3c-53,0-96-43-96-96V3855.4c0-53,43-96,96-96h150.8c53,0,96-43,96-96V2658c0-53,43-96,96-96h361.5
		c53,0,96-43,96-96V1254.6c0-53-43-96-96-96H833.4c-53,0-96-43-96-96V77.2c0-53-43-96-96-96H177.9"/>
	<path class="st147" d="M1325.2,7367H779.4c-53,0-96-43-96-96v-858.6c0-53,43-96,96-96h104.4c53,0,96-43.5,96-96.6V5103.6
		c0-53-43-96-96-96H435.7c-53,0-96-43-96-96V3856c0-53,43-96,96-96h150.8c53,0,96-43,96-96V2658.6c0-53,43-96,96-96h361.5
		c53,0,96-43,96-96V1255.2c0-53-43-96-96-96H832.8c-53,0-96-43-96-96V77.8c0-53-43-96-96-96H177.9"/>
	<path class="st148" d="M1325.2,7367.6H778.8c-53,0-96-43-96-96v-858.6c0-53,43-96,96-96h104.4c53,0,96-43.5,96-96.6V5104.2
		c0-53-43-96-96-96H435.2c-53,0-96-43-96-96V3856.6c0-53,43-96,96-96H586c53,0,96-43,96-96V2659.2c0-53,43-96,96-96h361.5
		c53,0,96-43,96-96V1255.7c0-53-43-96-96-96H832.2c-53,0-96-43-96-96V78.4c0-53-43-96-96-96H177.9"/>
	<path class="st149" d="M1325.2,7368.1h-547c-53,0-96-43-96-96v-858.6c0-53,43-96,96-96h104.4c53,0,96-43.5,96-96.5V5104.8
		c0-53-43-96-96-96H434.6c-53,0-96-43-96-96V3857.1c0-53,43-96,96-96h150.8c53,0,96-43,96-96V2659.8c0-53,43-96,96-96H1139
		c53,0,96-43,96-96V1256.3c0-53-43-96-96-96H831.6c-53,0-96-43-96-96V79c0-53-43-96-96-96H177.9"/>
	<path class="st150" d="M1325.2,7368.7H777.7c-53,0-96-43-96-96v-858.6c0-53,43-96,96-96h104.4c53,0,96-43.5,96-96.5V5105.4
		c0-53-43-96-96-96H434c-53,0-96-43-96-96V3857.7c0-53,43-96,96-96h150.8c53,0,96-43,96-96V2660.3c0-53,43-96,96-96h361.5
		c53,0,96-43,96-96V1256.9c0-53-43-96-96-96H831c-53,0-96-43-96-96V79.5c0-53-43-96-96-96H177.9"/>
	<path class="st151" d="M1325.2,7369.3H777.1c-53,0-96-43-96-96v-858.6c0-53,43-96,96-96h104.4c53,0,96-43.4,96-96.5V5105.9
		c0-53-43-96-96-96H433.4c-53,0-96-43-96-96V3858.3c0-53,43-96,96-96h150.8c53,0,96-43,96-96V2660.9c0-53,43-96,96-96h361.5
		c53,0,96-43,96-96V1257.4c0-53-43-96-96-96H830.5c-53,0-96-43-96-96V80.1c0-53-43-96-96-96H177.9"/>
	<path class="st152" d="M1325.2,7369.8H776.5c-53,0-96-43-96-96v-858.6c0-53,43-96,96-96h104.4c53,0,96-43.4,96-96.5V5106.5
		c0-53-43-96-96-96H432.8c-53,0-96-43-96-96V3858.8c0-53,43-96,96-96h150.8c53,0,96-43,96-96V2661.5c0-53,43-96,96-96h361.5
		c53,0,96-43,96-96V1258c0-53-43-96-96-96H829.9c-53,0-96-43-96-96V80.7c0-53-43-96-96-96H177.9"/>
	<path class="st153" d="M1325.2,7370.4H775.9c-53,0-96-43-96-96v-858.6c0-53,43-96,96-96h104.4c53,0,96-43.4,96-96.4V5107.1
		c0-53-43-96-96-96H432.2c-53,0-96-43-96-96V3859.4c0-53,43-96,96-96H583c53,0,96-43,96-96V2662c0-53,43-96,96-96h361.5
		c53,0,96-43,96-96V1258.6c0-53-43-96-96-96H829.3c-53,0-96-43-96-96V81.2c0-53-43-96-96-96H177.9"/>
	<path class="st154" d="M1325.2,7371H775.3c-53,0-96-43-96-96v-858.6c0-53,43-96,96-96h104.4c53,0,96-43.4,96-96.4V5107.6
		c0-53-43-96-96-96H431.6c-53,0-96-43-96-96V3860c0-53,43-96,96-96h150.8c53,0,96-43,96-96V2662.6c0-53,43-96,96-96H1136
		c53,0,96-43,96-96V1259.1c0-53-43-96-96-96H828.7c-53,0-96-43-96-96V81.8c0-53-43-96-96-96H177.9"/>
	<path class="st155" d="M1325.2,7371.6H774.7c-53,0-96-43-96-96v-858.6c0-53,43-96,96-96h104.4c53,0,96-43.4,96-96.4V5108.2
		c0-53-43-96-96-96H431c-53,0-96-43-96-96V3860.6c0-53,43-96,96-96h150.8c53,0,96-43,96-96V2663.2c0-53,43-96,96-96h361.5
		c53,0,96-43,96-96V1259.7c0-53-43-96-96-96H828.1c-53,0-96-43-96-96V82.4c0-53-43-96-96-96H177.9"/>
	<path class="st156" d="M1325.2,7372.1H774.1c-53,0-96-43-96-96v-858.6c0-53,43-96,96-96h104.4c53,0,96-43.3,96-96.4V5108.8
		c0-53-43-96-96-96H430.4c-53,0-96-43-96-96V3861.1c0-53,43-96,96-96h150.8c53,0,96-43,96-96V2663.7c0-53,43-96,96-96h361.5
		c53,0,96-43,96-96V1260.3c0-53-43-96-96-96H827.5c-53,0-96-43-96-96V82.9c0-53-43-96-96-96H177.9"/>
	<path class="st157" d="M1325.2,7372.7H773.5c-53,0-96-43-96-96v-858.6c0-53,43-96,96-96H878c53,0,96-43.3,96-96.3V5109.3
		c0-53-43-96-96-96H429.9c-53,0-96-43-96-96V3861.7c0-53,43-96,96-96h150.8c53,0,96-43,96-96V2664.3c0-53,43-96,96-96h361.5
		c53,0,96-43,96-96V1260.9c0-53-43-96-96-96H826.9c-53,0-96-43-96-96V83.5c0-53-43-96-96-96h-457"/>
	<path class="st158" d="M1325.2,7373.3H772.9c-53,0-96-43-96-96v-858.6c0-53,43-96,96-96h104.4c53,0,96-43.3,96-96.3V5109.9
		c0-53-43-96-96-96H429.3c-53,0-96-43-96-96V3862.3c0-53,43-96,96-96h150.8c53,0,96-43,96-96V2664.9c0-53,43-96,96-96h361.5
		c53,0,96-43,96-96V1261.4c0-53-43-96-96-96H826.3c-53,0-96-43-96-96V84.1c0-53-43-96-96-96H177.9"/>
	<path class="st159" d="M1325.2,7373.8H772.4c-53,0-96-43-96-96v-858.6c0-53,43-96,96-96h104.4c53,0,96-43.3,96-96.3V5110.5
		c0-53-43-96-96-96H428.7c-53,0-96-43-96-96V3862.8c0-53,43-96,96-96h150.8c53,0,96-43,96-96V2665.5c0-53,43-96,96-96h361.5
		c53,0,96-43,96-96V1262c0-53-43-96-96-96H825.7c-53,0-96-43-96-96V84.7c0-53-43-96-96-96H177.9"/>
	<path class="st160" d="M1325.2,7374.4H771.8c-53,0-96-43-96-96v-858.6c0-53,43-96,96-96h104.4c53,0,96-43.2,96-96.3V5111.1
		c0-53-43-96-96-96H428.1c-53,0-96-43-96-96V3863.4c0-53,43-96,96-96h150.8c53,0,96-43,96-96V2666c0-53,43-96,96-96h361.5
		c53,0,96-43,96-96V1262.6c0-53-43-96-96-96H825.2c-53,0-96-43-96-96V85.2c0-53-43-96-96-96H177.9"/>
	<path class="st161" d="M1325.2,7375h-554c-53,0-96-43-96-96v-858.6c0-53,43-96,96-96h104.4c53,0,96-43.2,96-96.3V5111.6
		c0-53-43-96-96-96H427.5c-53,0-96-43-96-96V3864c0-53,43-96,96-96h150.8c53,0,96-43,96-96V2666.6c0-53,43-96,96-96h361.5
		c53,0,96-43,96-96V1263.1c0-53-43-96-96-96H824.6c-53,0-96-43-96-96V85.8c0-53-43-96-96-96H177.9"/>
	<path class="st162" d="M1325.2,7375.5H770.6c-53,0-96-43-96-96v-858.6c0-53,43-96,96-96H875c53,0,96-43.2,96-96.2V5112.2
		c0-53-43-96-96-96H426.9c-53,0-96-43-96-96V3864.5c0-53,43-96,96-96h150.8c53,0,96-43,96-96V2667.2c0-53,43-96,96-96h361.5
		c53,0,96-43,96-96V1263.7c0-53-43-96-96-96H824c-53,0-96-43-96-96V86.4c0-53-43-96-96-96h-454"/>
	<path class="st163" d="M1325.2,7376.1H770c-53,0-96-43-96-96v-858.6c0-53,43-96,96-96h104.4c53,0,96-43.2,96-96.2V5112.8
		c0-53-43-96-96-96H426.3c-53,0-96-43-96-96V3865.1c0-53,43-96,96-96h150.8c53,0,96-43,96-96V2667.7c0-53,43-96,96-96h361.5
		c53,0,96-43,96-96V1264.3c0-53-43-96-96-96H823.4c-53,0-96-43-96-96V86.9c0-53-43-96-96-96H177.9"/>
	<path class="st164" d="M1325.2,7376.7H769.4c-53,0-96-43-96-96V6422c0-53,43-96,96-96h104.4c53,0,96-43.1,96-96.2V5113.3
		c0-53-43-96-96-96H425.7c-53,0-96-43-96-96V3865.7c0-53,43-96,96-96h150.8c53,0,96-43,96-96V2668.3c0-53,43-96,96-96h361.5
		c53,0,96-43,96-96V1264.8c0-53-43-96-96-96H822.8c-53,0-96-43-96-96V87.5c0-53-43-96-96-96H177.9"/>
	<path class="st165" d="M1325.2,7377.3H768.8c-53,0-96-43-96-96v-858.6c0-53,43-96,96-96h104.4c53,0,96-43.1,96-96.2V5113.9
		c0-53-43-96-96-96H425.1c-53,0-96-43-96-96V3866.3c0-53,43-96,96-96H576c53,0,96-43,96-96V2668.9c0-53,43-96,96-96h361.5
		c53,0,96-43,96-96V1265.4c0-53-43-96-96-96H822.2c-53,0-96-43-96-96V88.1c0-53-43-96-96-96H177.9"/>
	<path class="st166" d="M1325.2,7377.8h-557c-53,0-96-43-96-96v-858.6c0-53,43-96,96-96h104.4c53,0,96-43.1,96-96.1V5114.5
		c0-53-43-96-96-96H424.6c-53,0-96-43-96-96V3866.8c0-53,43-96,96-96h150.8c53,0,96-43,96-96V2669.4c0-53,43-96,96-96H1129
		c53,0,96-43,96-96V1266c0-53-43-96-96-96H821.6c-53,0-96-43-96-96V88.6c0-53-43-96-96-96H177.9"/>
	<path class="st167" d="M1325.2,7378.4H767.6c-53,0-96-43-96-96v-858.6c0-53,43-96,96-96h104.4c53,0,96-43.1,96-96.1V5115
		c0-53-43-96-96-96H424c-53,0-96-43-96-96V3867.4c0-53,43-96,96-96h150.8c53,0,96-43,96-96V2670c0-53,43-96,96-96h361.5
		c53,0,96-43,96-96V1266.6c0-53-43-96-96-96H821c-53,0-96-43-96-96V89.2c0-53-43-96-96-96H177.9"/>
	<path class="st168" d="M1325.2,7379H767.1c-53,0-96-43-96-96v-858.6c0-53,43-96,96-96h104.4c53,0,96-43,96-96.1V5115.6
		c0-53-43-96-96-96H423.4c-53,0-96-43-96-96V3868c0-53,43-96,96-96h150.8c53,0,96-43,96-96V2670.6c0-53,43-96,96-96h361.5
		c53,0,96-43,96-96V1267.1c0-53-43-96-96-96H820.4c-53,0-96-43-96-96V89.8c0-53-43-96-96-96H177.9"/>
	<path class="st169" d="M1325.2,7379.5H766.5c-53,0-96-43-96-96v-858.6c0-53,43-96,96-96h104.4c53,0,96-43,96-96.1V5116.2
		c0-53-43-96-96-96H422.8c-53,0-96-43-96-96V3868.5c0-53,43-96,96-96h150.8c53,0,96-43,96-96V2671.2c0-53,43-96,96-96h361.5
		c53,0,96-43,96-96V1267.7c0-53-43-96-96-96H819.9c-53,0-96-43-96-96V90.4c0-53-43-96-96-96H177.9"/>
	<path class="st170" d="M1325.2,7380.1H765.9c-53,0-96-43-96-96v-858.6c0-53,43-96,96-96h104.4c53,0,96-43,96-96V5116.7
		c0-53-43-96-96-96H422.2c-53,0-96-43-96-96V3869.1c0-53,43-96,96-96H573c53,0,96-43,96-96V2671.7c0-53,43-96,96-96h361.5
		c53,0,96-43,96-96V1268.3c0-53-43-96-96-96H819.3c-53,0-96-43-96-96V90.9c0-53-43-96-96-96H177.9"/>
</g>
<g>
	
		<image style="overflow:visible;opacity:0.25;" width="1220" height="7589" xlink:href="FCB0496DD0ED660B.png"  transform="matrix(1 0 0 1 167 -92)">
	</image>
	<g>
		<g>
			<path class="st171" d="M1331.5,7395v46.3H764.9c-66.4,0-120.4-54-120.4-120.4v-867.6c0-66.4,54-120.4,120.4-120.4h105.8
				c40.9,0,74.1-33.3,74.1-74.1V5141.3c0-40.9-33.3-74.1-74.1-74.1H416.8c-66.4,0-120.4-54-120.4-120.4V3884.5
				c0-66.4,54-120.4,120.4-120.4h152.8c40.9,0,74.1-33.3,74.1-74.1V2678.2c0-66.4,54-120.4,120.4-120.4h364.2
				c40.9,0,74.1-33.3,74.1-74.1V1266.3c0-40.9-33.3-74.1-74.1-74.1H816.1c-66.4,0-120.4-54-120.4-120.4V70.3
				c0-40.9,8.6-74.1-32.3-74.1H208.2v-46.3h455.1c66.4,0,78.6,54,78.6,120.4v1001.4c0,40.9,33.3,74.1,74.1,74.1h312.2
				c66.4,0,120.4,54,120.4,120.4v1217.4c0,66.4-54,120.4-120.4,120.4H764.1c-40.9,0-74.1,33.3-74.1,74.1v1011.6
				c0,66.4-54,120.4-120.4,120.4H416.8c-40.9,0-74.1,33.3-74.1,74.1v1062.3c0,40.9,33.3,74.1,74.1,74.1h453.9
				c66.4,0,120.4,54,120.4,120.4v1117.4c0,66.4-54,120.4-120.4,120.4H764.9c-40.9,0-74.1,33.3-74.1,74.1v867.6
				c0,40.9,33.3,74.1,74.1,74.1H1331.5z"/>
		</g>
	</g>
</g>
</svg>
